<?xml version="1.0" encoding="UTF-8"?>
<svg id="_레이어_1" data-name="레이어_1" xmlns="http://www.w3.org/2000/svg" version="1.1" viewBox="0 0 1000 400">
  <!-- Generator: Adobe Illustrator 29.5.0, SVG Export Plug-In . SVG Version: 2.1.0 Build 137)  -->
  <g>
    <path d="M302.17,200.45c0-21.12,15.73-36.41,38.83-36.41,7.59,0,14.74,2.64,18.81,4.84l5.94-2.86.88,20.24h-.66l-9.13-16.72c-2.86-2.31-8.91-4.29-15.95-4.29-18.48,0-29.04,15.18-29.04,34.32,0,21.12,12.1,35.42,28.82,35.42,12.98,0,19.03-5.94,24.97-16.28l2.75-4.62h.66l-3.96,16.72-3.74.77c-4.18,2.09-13.09,4.62-21.01,4.62-22.22,0-38.17-14.19-38.17-35.75Z"/>
    <path d="M386.1,211.45c0-13.75,10.67-24.97,24.64-24.97s24.53,10.67,24.53,24.53-10.67,24.97-24.53,24.97-24.64-10.67-24.64-24.53ZM426.03,212c0-8.47-1.87-16.39-6.05-20.57-2.42-2.31-5.5-4.07-9.46-4.07-9.46,0-15.29,10.89-15.29,22.66,0,9.02,1.98,17.05,6.27,21.23,2.42,2.42,5.61,3.85,9.35,3.85,9.02,0,15.18-10.78,15.18-23.1Z"/>
    <path d="M450.12,233.89l1.98-.11c3.41-.22,4.62-.33,4.62-1.65v-31.9c0-6.82-.77-8.14-4.51-8.69l-2.53-.44.11-.44,14.74-3.85-.33,9.46.33.22c4.18-3.63,10.78-9.9,18.59-9.9,3.41,0,6.27.99,8.25,3.08,2.42,2.42,3.52,5.94,3.52,10.67v31.9c0,.66,0,1.1,5.5,1.54l1.54.11.33.66h-21.89l.33-.66,1.98-.11c3.85-.22,4.51-.77,4.51-1.65v-30.36c0-6.49-3.3-9.68-9.68-9.68-5.17,0-9.57,2.42-13.09,5.72v34.54c0,.88.66,1.1,5.5,1.43l1.54.11.33.66h-22l.33-.66Z"/>
    <path d="M522.05,225.31l.66-33.22-8.58-.11.33-.88,15.18-12.98.99.11-.11,9.79h14.63l-1.54,3.85h-13.09l-.77,32.56c-.11,4.73,2.75,7.04,7.04,7.04s6.93-2.2,9.46-4.29l.55.33c-4.4,4.4-8.8,8.47-14.52,8.47-5.39,0-10.34-2.42-10.23-10.67Z"/>
    <path d="M586.18,227.95v-.11c-4.18,3.96-8.91,7.7-14.08,7.7-6.49,0-11-4.73-11-10.23,0-7.15,5.39-12.43,25.85-17.38l.11-4.84c.44-11-4.95-14.08-10.67-14.08-4.4,0-9.13,2.75-9.13,4.07,0,.77,2.75,2.53,2.75,5.5,0,2.2-1.87,4.29-4.73,4.29s-4.73-1.65-4.73-4.29c0-5.5,12.65-12.1,21.01-12.1,9.13,0,13.86,3.41,13.2,16.06l-1.1,23.76c-.22,3.63,1.21,4.95,3.63,4.95,1.76,0,3.41-1.43,4.95-2.97l.55.33c-1.98,2.42-5.17,7.04-9.68,7.04-3.85,0-6.6-2.97-6.93-7.7ZM586.29,226.52l.66-17.49c-15.62,3.74-18.04,8.47-18.04,13.86,0,4.95,3.19,8.14,7.48,8.14,3.63,0,6.93-1.54,9.9-4.51Z"/>
    <path d="M614.89,212.33c0-14.3,10.01-25.85,24.42-25.85,8.8,0,15.84,4.07,15.84,10.12,0,2.86-2.42,5.28-4.95,5.28-2.86,0-4.95-2.09-4.95-4.62,0-3.52,2.2-4.62,2.2-5.5,0-1.43-3.74-4.4-7.92-4.4-8.8,0-16.28,8.91-16.28,21.45s7.59,21.67,17.27,21.67c6.71,0,10.78-2.2,14.85-8.8l.88.33c-4.84,8.58-10.67,13.97-19.58,13.97-12.32,0-21.78-10.45-21.78-23.65Z"/>
    <path d="M675.72,225.31l.66-33.22-8.58-.11.33-.88,15.18-12.98.99.11-.11,9.79h14.63l-1.54,3.85h-13.09l-.77,32.56c-.11,4.73,2.75,7.04,7.04,7.04s6.93-2.2,9.46-4.29l.55.33c-4.4,4.4-8.8,8.47-14.52,8.47-5.39,0-10.34-2.42-10.23-10.67Z"/>
  </g>
  <g>
    <path d="M406.46,294.49c0,1.28-.24,2.44-.68,3.48-.48,1.04-1.12,1.92-1.92,2.64-.8.72-1.76,1.28-2.8,1.64-1.08.4-2.2.6-3.4.6s-2.36-.2-3.4-.6c-1.08-.36-2-.92-2.8-1.68-.8-.72-1.44-1.6-1.88-2.64-.48-1-.72-2.16-.72-3.44s.24-2.44.72-3.48c.44-1.04,1.08-1.92,1.88-2.64.8-.72,1.72-1.28,2.8-1.68,1.04-.36,2.2-.56,3.4-.56s2.32.2,3.4.56c1.04.4,2,.96,2.8,1.68s1.44,1.6,1.92,2.64c.44,1.04.68,2.2.68,3.48ZM403.43,294.53c0-.96-.16-1.8-.44-2.6-.32-.72-.72-1.36-1.2-1.92-.56-.48-1.16-.88-1.84-1.2-.72-.24-1.48-.4-2.28-.4s-1.56.16-2.24.4c-.72.32-1.36.72-1.84,1.2-.56.56-.96,1.2-1.24,1.92-.32.8-.44,1.64-.44,2.6s.12,1.8.44,2.52c.28.76.68,1.4,1.24,1.92.48.56,1.12.96,1.84,1.2.68.32,1.44.44,2.24.44s1.56-.12,2.28-.44c.68-.28,1.28-.68,1.84-1.24.48-.48.88-1.12,1.2-1.88.28-.72.44-1.56.44-2.52ZM412.58,316.08c.32,0,.64-.08.88-.16.24-.16.44-.28.68-.36.16-.16.36-.28.56-.36.16-.12.4-.16.64-.16.4,0,.84,0,1.32.08.4,0,.84.08,1.32.24.4.08.68.28.88.52.16.2.24.44.24.76,0,.72-.52,1.12-1.52,1.12l-15.24.16c-2.08.04-3.12-1.04-3.12-3.24v-4.32c0-.56-.24-1.04-.72-1.44-.52-.36-1.28-.72-2.24-1.04-.24-.08-.44-.16-.56-.32-.16-.08-.24-.24-.24-.48,0-.2.08-.36.32-.52.2-.12.52-.2,1-.2.24,0,.72.04,1.48.08.72.08,1.44.2,2.16.36.56.16.96.32,1.28.52.24.24.4.52.4.76v7c0,.76.36,1.16,1.08,1.16l9.4-.16ZM411.82,291.17c-.32.08-.52.16-.68.24l-.48.28c-.16.08-.32.16-.48.16-.2.04-.44,0-.76-.08-.4-.08-.92-.28-1.48-.56-.6-.24-1.04-.48-1.32-.72-.4-.24-.56-.52-.56-.76,0-.32.2-.48.64-.48h1.12c.32.04.72.04,1.16.04h2.28c.88,0,1.8,0,2.68-.08v-2.96c0-.56-.28-1.04-.76-1.44-.56-.36-1.32-.72-2.28-1.04-.24-.08-.44-.16-.56-.32-.16-.08-.24-.24-.24-.48,0-.2.08-.36.32-.52.2-.12.52-.2,1-.2.24,0,.72.04,1.48.08.72.08,1.44.2,2.16.36.56.16,1.04.32,1.44.48.4.2.6.44.6.68,0,.32-.08.64-.16,1-.16.4-.2.88-.2,1.48v16.8c0,.56-.04,1.24-.04,2.04-.04.84-.12,1.64-.2,2.36-.12.76-.28,1.4-.52,1.92-.24.56-.6.8-1,.8-.16,0-.32-.04-.44-.2-.16-.12-.24-.36-.32-.68-.08-.32-.16-.72-.2-1.28-.08-.52-.08-1.2-.08-2.04v-6.84c-.28.04-.56.04-.8.04l-.92.12c-.32.08-.52.16-.68.24l-.48.28c-.16.08-.32.16-.48.16-.2.04-.44,0-.76-.08-.4-.08-.92-.28-1.48-.56-.6-.24-1.04-.48-1.32-.72-.4-.24-.56-.52-.56-.76,0-.32.2-.48.64-.48h1.12c.32.04.72.04,1.16.04.56,0,1.28,0,2.12-.04.8,0,1.6,0,2.44-.04v-6.44c-.36.04-.68.08-1,.08-.36.04-.72.08-1.12.12Z"/>
    <path d="M428.23,297.45c0-.56-.24-1.04-.68-1.44-.48-.32-1.2-.68-2.16-1-.24-.08-.44-.16-.56-.32-.16-.08-.24-.24-.24-.48,0-.2.08-.36.32-.52.2-.12.52-.2,1-.2h.52c.24.04.52.08.84.08.32.04.64.08,1.04.08.32.08.68.12,1.04.2l10.56-.2v-5.88h-1.64c-.64.04-1.28.08-1.92.08-.68.08-1.32.12-1.96.16-.68.08-1.28.12-1.76.16-.4.08-.72.16-.96.28-.28.16-.52.28-.76.4-.28.16-.56.24-.8.28-.28.08-.6.08-.96-.04-.36-.08-.72-.24-1.04-.4-.4-.12-.72-.28-1-.44-.32-.16-.6-.32-.8-.48-.24-.16-.44-.28-.52-.36s-.16-.16-.24-.32c-.12-.12-.16-.28-.16-.44,0-.24.08-.4.32-.48.16-.08.44-.08.76-.04.64.12,1.28.2,1.96.2.64.04,1.24.04,1.84.04,1.04,0,2.24,0,3.64-.08,1.36,0,2.76-.08,4.12-.16.4,0,.76-.08,1-.16.24-.04.44-.12.64-.2.16-.08.32-.12.48-.2.16-.04.36-.08.64-.08.32,0,.64.04,1,.04.32.08.64.12.96.2.28.08.52.2.72.32.16.16.28.36.28.56,0,.16-.04.32-.08.44-.08.16-.12.28-.16.44-.08.16-.16.36-.24.6s-.16.56-.2.92l-.68,4.56c.76.04,1.16.36,1.16.96,0,.4-.16.64-.4.76-.32.16-.68.24-1.12.24l-10.72.16v4.88c0,.4.08.64.24.72.12.16.36.2.68.2,2.8,0,5.68-.28,8.64-.84,2.92-.56,5.76-1.24,8.56-2.12v-12.28c0-.56-.28-1.04-.76-1.44-.56-.36-1.32-.72-2.28-1.04-.24-.08-.44-.16-.56-.32-.16-.08-.24-.24-.24-.48,0-.2.08-.36.32-.52.2-.12.52-.2,1-.2.24,0,.72.04,1.48.08.72.08,1.44.2,2.16.36.56.16,1.04.32,1.44.48.4.2.6.44.6.68,0,.32-.08.64-.16,1-.16.4-.2.88-.2,1.48v6.6h1.36c.32,0,.64-.04.88-.16.24-.08.44-.2.68-.36.16-.12.36-.24.56-.36.16-.08.4-.16.64-.16.4,0,.84.04,1.32.04.4.08.84.16,1.32.28.4.12.68.28.88.48.16.24.24.52.24.8,0,.76-.52,1.12-1.52,1.12h-6.36v3.16c0,.56-.04,1.24-.04,2.04-.04.84-.12,1.64-.2,2.36-.12.76-.28,1.4-.52,1.92-.24.56-.6.8-1,.8-.16,0-.32-.04-.44-.2-.16-.12-.24-.36-.32-.68-.08-.32-.16-.72-.2-1.28-.08-.52-.08-1.2-.08-2.04v-.52c-1.44.56-3,1.04-4.64,1.52-1.68.48-3.28.92-4.88,1.28-1.6.4-3.12.68-4.56.88-1.44.24-2.68.36-3.64.36-1.28,0-2.2-.32-2.68-1-.56-.64-.8-1.6-.8-2.88v-2.88ZM451.82,314.24c0,.36-.04.84-.12,1.48-.08.56-.2,1.16-.32,1.72-.16.56-.36,1.04-.56,1.44-.24.4-.48.6-.8.6-.4,0-.64-.36-.8-1.04-.16-.72-.24-1.92-.24-3.64v-6.48c-.48,0-1.24.04-2.2.04-1,.04-2.04.08-3.16.08-1.12.08-2.2.12-3.2.16-1.04.08-1.8.12-2.28.16-.4.08-.68.16-.92.24-.28.16-.52.28-.76.36-.24.16-.52.24-.76.28-.28.08-.6.04-.96-.12-.36-.08-.72-.24-1.04-.4-.4-.16-.72-.32-1-.48-.32-.16-.6-.32-.8-.48-.24-.12-.44-.24-.52-.32s-.16-.16-.2-.24c-.08-.08-.12-.16-.12-.32,0-.24.08-.4.32-.48.16-.08.44-.08.76-.04.64.12,1.28.2,1.96.2.64.04,1.24.04,1.84.04.48,0,1.24,0,2.2-.04.92,0,1.92,0,3-.08,1.04,0,2.04-.04,3.08-.08,1,0,1.84-.04,2.52-.12.4,0,.76-.08,1-.16.24-.04.44-.12.64-.2.16-.08.32-.12.48-.2.16-.04.36-.08.64-.08.32,0,.64.04,1.04.04.32.08.68.12,1,.2.28.08.52.2.76.32.16.16.28.36.28.56,0,.24-.04.4-.08.56-.08.16-.12.36-.2.56-.08.24-.16.48-.2.72-.08.32-.12.64-.12,1.04l-.16,4.2Z"/>
    <path d="M476.27,289.89c-.04-.28-.08-.56-.08-.8-.08-.2-.16-.4-.28-.64-.16-.16-.36-.36-.6-.56-.32-.16-.68-.32-1.16-.48-.24-.08-.44-.16-.56-.32-.16-.08-.24-.24-.24-.48,0-.2.08-.36.32-.52.2-.12.52-.2,1-.2.24,0,.64.04,1.28.08.56.08,1.24.2,1.96.36.12.08.24.08.36.08.08.04.16.08.28.12l8.44-.4c.4,0,.76-.08,1.04-.16.24-.08.44-.16.64-.28.16-.08.36-.16.56-.24.16-.04.36-.08.64-.08.32,0,.64.04,1.04.04.32.04.68.08,1,.16.28.08.52.2.76.32.2.16.32.36.32.6,0,.2-.04.36-.08.52l-.2.56c-.08.2-.12.44-.2.68-.08.32-.16.64-.16,1.04l-.84,8.76c.88.16,1.32.56,1.32,1.12,0,.4-.16.68-.48.8-.36.16-.76.2-1.2.2h-11.64c-.16.64-.32,1.04-.56,1.24-.28.24-.52.32-.72.32-.4,0-.68-.24-.84-.72-.16-.44-.32-1.24-.4-2.36l-.72-8.76ZM479.71,298.37l9.44-.2v-10.2l-9.6.2.16,9.6v.6ZM498.82,306.61c.32,0,.64-.08.88-.2.24-.08.44-.16.68-.28.16-.08.36-.2.56-.28.16-.08.4-.12.64-.12.4,0,.84.04,1.32.04.4.08.84.16,1.32.28.4.12.68.28.88.48.16.24.24.52.24.8,0,.72-.52,1.08-1.52,1.08h-4.12l-4.68.12c.32.28.48.56.48.88,0,.28-.08.52-.2.76-.12.16-.2.32-.28.48l-.36.48c.4.24.8.44,1.28.64.4.24.84.48,1.24.64.36.24.72.4,1.04.52.28.16.52.24.68.28.24.08.48.12.76.12.24.04.52.04.84.04.24,0,.52.04.8.08.24.08.52.16.8.32.56.32,1.08.76,1.64,1.24.52.44,1.04.96,1.6,1.56.28.32.44.64.44.96.08.56-.16.96-.72,1.12-.16.04-.4.04-.72-.04-.36-.12-.8-.32-1.36-.64l-9.56-5.44c-.8.8-1.68,1.48-2.64,2.16-1,.64-2.04,1.24-3.08,1.8-1.08.52-2.16,1-3.24,1.44-1.12.4-2.12.72-3.08,1-.28.08-.52.12-.72.16-.24,0-.44-.04-.52-.2s-.12-.28-.08-.44c0-.2.16-.36.48-.48,1.12-.48,2.24-1,3.4-1.6,1.12-.64,2.16-1.32,3.16-2,.96-.72,1.84-1.4,2.64-2.16.76-.72,1.36-1.4,1.84-2.12.12-.2.2-.44.24-.72,0-.24-.08-.48-.28-.72-.88.04-1.68.08-2.4.08-.76.04-1.36.08-1.8.12-.4.04-.68.12-.92.24-.28.16-.52.28-.76.36-.24.12-.52.2-.76.24-.28.08-.6.04-.96-.12-.36-.08-.72-.24-1.04-.4-.4-.16-.72-.32-1-.48-.32-.16-.6-.32-.8-.48-.24-.12-.44-.24-.52-.32s-.16-.16-.2-.24c-.08-.08-.12-.16-.12-.32,0-.24.08-.4.32-.48.16-.08.44-.08.76-.04.64.12,1.28.2,1.96.2.64.08,1.24.08,1.84.08,1.76,0,3.72,0,5.88-.08,2.16-.04,4.76-.16,7.8-.4ZM497.86,303.49c0,.4-.2.68-.52.88-.36.24-.76.36-1.24.4-.96.16-1.84.24-2.72.28-.92.08-1.92.08-3.04.08-.32,0-.6-.04-.88-.2-.32-.12-.6-.28-.88-.52-.32-.16-.56-.4-.8-.64-.24-.24-.44-.48-.6-.72-.12-.12-.16-.28-.16-.48,0-.4.4-.52,1.2-.36.28.08.6.16,1,.2.36.08.76.16,1.16.2.32.04.68.04,1.16.04.4.04.88.04,1.4,0,.48,0,1,0,1.56-.04.52,0,1.04,0,1.52-.04.6,0,1.08.04,1.4.12.28.16.44.4.44.8ZM503.14,296.97c0,.56-.04,1.24-.04,2.04-.04.84-.12,1.64-.2,2.36-.12.76-.28,1.4-.52,1.92-.24.56-.6.8-1,.8-.16,0-.32-.04-.44-.2-.16-.12-.24-.36-.32-.68-.08-.32-.16-.72-.2-1.28-.08-.52-.08-1.2-.08-2.04v-13.64c0-.56-.28-1.04-.76-1.44-.56-.36-1.32-.72-2.28-1.04-.24-.08-.44-.16-.56-.32-.16-.08-.24-.24-.24-.48,0-.2.08-.36.32-.52.2-.12.52-.2,1-.2.24,0,.72.04,1.48.08.72.08,1.44.2,2.16.36.56.16,1.04.32,1.44.48.4.2.6.44.6.68,0,.32-.08.64-.16,1-.16.4-.2.88-.2,1.48v10.64Z"/>
    <path d="M541.26,294.49c0,1.28-.24,2.44-.68,3.48-.48,1.04-1.12,1.92-1.92,2.64-.8.72-1.76,1.28-2.8,1.64-1.08.4-2.2.6-3.4.6s-2.36-.2-3.4-.6c-1.08-.36-2-.92-2.8-1.68-.8-.72-1.44-1.6-1.88-2.64-.48-1-.72-2.16-.72-3.44s.24-2.44.72-3.48c.44-1.04,1.08-1.92,1.88-2.64s1.72-1.28,2.8-1.68c1.04-.36,2.2-.56,3.4-.56s2.32.2,3.4.56c1.04.4,2,.96,2.8,1.68s1.44,1.6,1.92,2.64c.44,1.04.68,2.2.68,3.48ZM538.22,294.53c0-.96-.16-1.8-.44-2.6-.32-.72-.72-1.36-1.2-1.92-.56-.48-1.16-.88-1.84-1.2-.72-.24-1.48-.4-2.28-.4s-1.56.16-2.24.4c-.72.32-1.36.72-1.84,1.2-.56.56-.96,1.2-1.24,1.92-.32.8-.44,1.64-.44,2.6s.12,1.8.44,2.52c.28.76.68,1.4,1.24,1.92.48.56,1.12.96,1.84,1.2.68.32,1.44.44,2.24.44s1.56-.12,2.28-.44c.68-.28,1.28-.68,1.84-1.24.48-.48.88-1.12,1.2-1.88.28-.72.44-1.56.44-2.52ZM545.86,316.08c.32,0,.64-.08.88-.16.24-.16.44-.28.68-.36.16-.16.36-.28.56-.36.16-.12.4-.16.64-.16.4,0,.84,0,1.32.08.4,0,.84.08,1.32.24.4.08.68.28.88.52.16.2.24.44.24.76,0,.72-.52,1.12-1.52,1.12l-14.84.16c-2.08.04-3.12-1.04-3.12-3.24v-4.32c0-.56-.24-1.04-.72-1.44-.52-.36-1.28-.72-2.24-1.04-.24-.08-.44-.16-.56-.32-.16-.08-.24-.24-.24-.48,0-.2.08-.36.32-.52.2-.12.52-.2,1-.2.24,0,.72.04,1.48.08.72.08,1.44.2,2.16.36.56.16.96.32,1.28.52.24.24.4.52.4.76v7c0,.76.36,1.16,1.08,1.16l9-.16ZM549.82,294.53h1.36c.32,0,.64-.04.88-.16.24-.08.44-.2.68-.36.16-.12.36-.24.56-.36.16-.08.4-.16.64-.16.4,0,.84.04,1.32.04.4.08.84.16,1.32.28.4.12.68.28.88.48.16.24.24.52.24.8,0,.76-.52,1.12-1.52,1.12h-6.36v6.92c0,.56-.04,1.24-.04,2.04-.04.84-.12,1.64-.2,2.36-.12.76-.28,1.4-.52,1.92-.24.56-.6.8-1,.8-.16,0-.32-.04-.44-.2-.16-.12-.24-.36-.32-.68-.08-.32-.16-.72-.2-1.28-.08-.52-.08-1.2-.08-2.04v-19.8c0-.56-.28-1.04-.76-1.44-.56-.36-1.32-.72-2.28-1.04-.24-.08-.44-.16-.56-.32-.16-.08-.24-.24-.24-.48,0-.2.08-.36.32-.52.2-.12.52-.2,1-.2.24,0,.72.04,1.48.08.72.08,1.44.2,2.16.36.56.16,1.04.32,1.44.48.4.2.6.44.6.68,0,.32-.08.64-.16,1-.16.4-.2.88-.2,1.48v8.2Z"/>
    <path d="M583.78,297.05h4.2v-10.8c0-.56-.28-1.04-.76-1.44-.56-.36-1.32-.72-2.28-1.04-.24-.08-.44-.16-.56-.32-.16-.08-.24-.24-.24-.48,0-.2.08-.36.32-.52.2-.12.52-.2,1-.2.24,0,.72.04,1.48.08.72.08,1.44.2,2.16.36.56.16,1.04.32,1.44.48.4.2.6.44.6.68,0,.32-.08.64-.16,1-.16.4-.2.88-.2,1.48v26c0,1.04-.08,2-.16,3.04-.12.96-.28,1.84-.52,2.6-.24.72-.6,1.08-1.08,1.08-.72,0-1.04-1.68-1.04-5v-15.04h-4.2v11.04c0,1.04-.08,2.04-.16,3-.12,1-.28,1.88-.52,2.64-.24.72-.6,1.08-1.08,1.08-.72,0-1.04-1.68-1.04-5v-6.76c-1.28.48-2.6.88-3.88,1.2-1.36.4-2.64.72-3.88.96-1.28.32-2.44.52-3.52.64-1.12.16-2.12.24-2.92.24-1.28,0-2.2-.32-2.68-1-.56-.64-.8-1.6-.8-2.88v-10.6c0-.56-.24-1.04-.68-1.44-.48-.32-1.2-.68-2.16-1-.24-.08-.44-.16-.56-.32-.16-.08-.24-.24-.24-.48,0-.2.08-.36.32-.52.2-.12.52-.2,1-.2.24,0,.72.04,1.52.08.72.08,1.48.16,2.2.32s1.2.36,1.48.52c.24.2.36.44.36.76,0,.24-.04.52-.08.8-.08.32-.08.72-.08,1.16v11.16c0,.72.28,1.04.92,1.04,2.32,0,4.64-.2,6.88-.6,2.24-.36,4.48-.88,6.8-1.6v-14.52c0-.56-.28-1.04-.76-1.44-.56-.36-1.32-.72-2.28-1.04-.24-.08-.44-.16-.56-.32-.16-.08-.24-.24-.24-.48,0-.2.08-.36.32-.52.2-.12.52-.2,1-.2.24,0,.72.04,1.48.08.72.08,1.44.2,2.16.36.56.16,1.04.32,1.44.48.4.2.6.44.6.68,0,.32-.08.64-.16,1-.16.4-.2.88-.2,1.48v8.24Z"/>
  </g>
</svg>