<?xml version="1.0" encoding="UTF-8"?>
<svg id="_레이어_1" data-name="레이어_1" xmlns="http://www.w3.org/2000/svg" version="1.1" viewBox="0 0 1000 300">
  <!-- Generator: Adobe Illustrator 29.5.0, SVG Export Plug-In . SVG Version: 2.1.0 Build 137)  -->
  <defs>
    <style>
      .st0 {
        fill: #fff;
      }
    </style>
  </defs>
  <rect width="1000" height="300"/>
  <g>
    <path class="st0" d="M240.13,200.34c0-18.92,17.05-36.19,36.41-36.19,20.79,0,36.3,14.74,36.3,36.08,0,19.03-17.05,35.86-36.52,35.86-20.79,0-36.19-14.63-36.19-35.75ZM303.16,200.12c0-20.46-11.33-34.87-26.95-34.87s-26.4,13.64-26.4,35.2c0,20.35,11.11,34.43,26.95,34.43s26.4-13.42,26.4-34.76Z"/>
    <path class="st0" d="M364.21,226.3h-.11c-4.18,3.74-10.56,9.68-18.37,9.68-3.74,0-6.38-.99-8.58-3.19-2.42-2.42-3.3-6.05-3.3-10.56v-32.01c0-.66,0-.99-5.61-1.43l-1.54-.11-.33-.66h15.18v32.78c0,6.49,3.3,9.68,9.79,9.68,5.17,0,9.13-2.2,12.54-5.28v-30.8c0-4.51-.99-5.28-5.5-5.61l-1.54-.11-.33-.66h15.18v39.71c0,2.42.44,3.19,2.75,3.52l4.29.66-.11.55-14.63,3.85.22-10.01Z"/>
    <path class="st0" d="M390.83,233.89l1.98-.11c3.41-.22,4.62-.33,4.62-1.65v-31.9c0-6.82-.77-8.14-4.51-8.69l-2.53-.44.11-.44,14.74-3.85-.33,18.26h.11c2.97-11.33,7.7-18.48,14.74-18.48,3.85,0,6.49,2.75,6.49,5.61,0,2.64-1.98,5.5-5.28,5.5-2.75,0-5.5-2.09-5.72-6.71-4.73.99-7.04,5.94-10.12,17.16v24.2c0,.88.33,1.32,5.17,1.43l3.52.11.33.66h-23.65l.33-.66Z"/>
    <path class="st0" d="M470.36,233.89l5.5-.44c3.85-.33,5.28-1.1,5.28-1.76v-63.36c0-.77-.66-1.1-6.38-1.54l-4.29-.33-.33-.66h30.58c16.61,0,24.86,6.05,24.86,16.39,0,11.22-10.67,19.03-26.07,19.03-3.41,0-7.26-.44-9.57-.77v31.57c0,.77.66,1.21,6.38,1.54l5.39.33.33.66h-32.01l.33-.66ZM516.23,183.51c0-10.78-4.84-16.94-18.48-16.72l-7.81.11v31.9c2.31.66,4.95,1.21,9.57,1.21,10.56,0,16.72-5.94,16.72-16.5Z"/>
    <path class="st0" d="M539,233.89l1.87-.11c3.3-.22,4.51-.33,4.51-1.65v-60.83c0-4.4-.66-5.5-4.4-6.27l-2.53-.44.11-.44,14.52-3.63v35.75l.11.22c4.29-3.63,10.78-9.9,18.7-9.9,3.41,0,6.16,1.1,8.14,3.08,2.42,2.53,3.52,5.94,3.52,10.56v32.01c0,.66,0,1.21,5.5,1.54l1.54.11.33.66h-22l.33-.66,1.98-.11c3.96-.22,4.62-.77,4.62-1.65v-30.36c0-6.49-3.3-9.68-9.57-9.68-5.28,0-9.68,2.42-13.2,5.72v34.54c0,.88.66,1.1,5.61,1.43l1.54.11.33.66h-21.89l.33-.66Z"/>
    <path class="st0" d="M604.11,211.45c0-13.75,10.67-24.97,24.64-24.97s24.53,10.67,24.53,24.53-10.67,24.97-24.53,24.97-24.64-10.67-24.64-24.53ZM644.04,212c0-8.47-1.87-16.39-6.05-20.57-2.42-2.31-5.5-4.07-9.46-4.07-9.46,0-15.29,10.89-15.29,22.66,0,9.02,1.98,17.05,6.27,21.23,2.42,2.42,5.61,3.85,9.35,3.85,9.02,0,15.18-10.78,15.18-23.1Z"/>
    <path class="st0" d="M675.06,225.31l.66-33.22-8.58-.11.33-.88,15.18-12.98.99.11-.11,9.79h14.63l-1.54,3.85h-13.09l-.77,32.56c-.11,4.73,2.75,7.04,7.04,7.04s6.93-2.2,9.46-4.29l.55.33c-4.4,4.4-8.8,8.47-14.52,8.47-5.39,0-10.34-2.42-10.23-10.67Z"/>
    <path class="st0" d="M711.58,211.45c0-13.75,10.67-24.97,24.64-24.97s24.53,10.67,24.53,24.53-10.67,24.97-24.53,24.97-24.64-10.67-24.64-24.53ZM751.51,212c0-8.47-1.87-16.39-6.05-20.57-2.42-2.31-5.5-4.07-9.46-4.07-9.46,0-15.29,10.89-15.29,22.66,0,9.02,1.98,17.05,6.27,21.23,2.42,2.42,5.61,3.85,9.35,3.85,9.02,0,15.18-10.78,15.18-23.1Z"/>
  </g>
</svg>