<?xml version="1.0" encoding="UTF-8"?>
<svg id="_레이어_1" data-name="레이어_1" xmlns="http://www.w3.org/2000/svg" version="1.1" viewBox="0 0 1000 1200">
  <!-- Generator: Adobe Illustrator 29.5.0, SVG Export Plug-In . SVG Version: 2.1.0 Build 137)  -->
  <defs>
    <style>
      .st0 {
        fill: #fff;
      }

      .st1 {
        opacity: .1;
      }
    </style>
  </defs>
  <rect y="100" width="1000" height="1000" rx="100" ry="100"/>
  <g class="st1">
    <path class="st0" d="M851.15,782.58c-3.17,5.68-7.74,12.48-13.73,20.37-6.01,7.9-14.06,15.63-24.16,23.21-10.11,7.58-22.11,14.06-35.99,19.42-13.9,5.36-30.31,8.05-49.26,8.05-35.99,0-67.89-8.53-95.67-25.58-27.79-17.05-55.58-40.09-83.36-69.15-11.37,12.64-23.84,24.95-37.42,36.94-13.59,12-28.27,22.42-44.05,31.26-15.79,8.85-32.53,15.95-50.2,21.31-17.69,5.36-36.94,8.05-57.78,8.05-22.11,0-42-3.32-59.68-9.95-17.69-6.63-32.68-15.47-44.99-26.52-12.31-11.04-21.64-23.99-27.94-38.84-6.32-14.83-9.47-30.46-9.47-46.89,0-24.63,6.16-47.51,18.47-68.67,12.31-21.15,27-39.93,44.05-56.36,17.05-16.41,34.41-30.15,52.1-41.2,17.67-11.04,31.88-19.42,42.63-25.1-1.89-3.15-6.63-10.42-14.21-21.79-7.58-11.37-15.32-25.57-23.21-42.62-7.9-17.05-15.01-35.83-21.31-56.36-6.32-20.51-9.47-41.83-9.47-63.94,0-26.52,4.1-50.04,12.31-70.57,8.2-20.51,19.26-37.73,33.15-51.62s29.51-24.47,46.89-31.73c17.36-7.25,35.52-10.89,54.47-10.89,38.51,0,70.24,11.53,95.2,34.57,24.94,23.06,37.42,53.84,37.42,92.35,0,19.58-3.64,37.89-10.89,54.94-7.27,17.05-17.05,33.15-29.37,48.31-12.31,15.16-26.38,29.22-42.15,42.15-15.79,12.95-32.53,25.1-50.2,36.47,22.73,32.95,45.94,63.69,69.62,92.19,23.68,28.51,48.46,56.06,74.36,82.68,16.41-24.05,30.93-48.9,43.57-74.55,12.62-25.63,25.41-49.06,38.36-70.29,12.94-21.21,27-38.61,42.15-52.23,15.16-13.62,33.46-20.42,54.94-20.42,15.78,0,29.37,4.9,40.73,14.68,11.37,9.8,17.05,22.9,17.05,39.31,0,11.37-3.48,20.53-10.42,27.47-6.96,6.96-15.79,10.42-26.52,10.42s-19.11-2.68-25.1-8.05c-6.01-5.36-10.89-11.04-14.68-17.05-3.79-5.99-6.79-11.68-9-17.05-2.22-5.36-4.59-8.05-7.1-8.05-6.96,0-13.26,1.58-18.95,4.75-5.68,3.17-11.37,8.39-17.05,15.67-5.68,7.28-12,16.61-18.95,28-6.96,11.4-14.85,25.34-23.68,41.8-6.96,12.67-14.84,27.38-23.68,44.16-8.85,16.78-18.95,34.66-30.31,53.65,9.47,10.54,20.99,22.76,34.57,36.71,13.57,13.94,27.94,27.25,43.1,39.95,15.16,12.7,30.62,23.55,46.41,32.53,15.78,8.98,30.93,13.47,45.47,13.47,17.67,0,31.41-3.29,41.21-9.89,9.78-6.59,18.14-14.98,25.1-25.16l6.63,5.68ZM538.57,748.55c-37.27-38.53-69-75.16-95.2-109.91-26.21-34.75-46.58-62.55-61.1-83.4-6.96,4.44-15.16,10.15-24.63,17.12-9.47,6.97-18.47,15.84-27,26.61-8.52,10.77-15.79,23.62-21.79,38.51-6.01,14.89-9,32.8-9,53.71,0,15.21,2.68,30.27,8.05,45.16,5.36,14.89,12.79,28.05,22.26,39.46,9.47,11.41,20.84,20.77,34.1,28.05,13.26,7.28,27.78,10.92,43.57,10.92,13.26,0,26.36-2.07,39.31-6.23,12.94-4.16,25.1-9.28,36.47-15.36,11.37-6.07,21.79-13.11,31.26-21.12,9.47-7.99,17.36-15.84,23.68-23.52ZM444.79,490.83c19.57-13.84,34.72-29.1,45.47-45.78,10.73-16.68,18.62-32.74,23.68-48.16,5.05-15.42,8.05-29.26,9-41.53.95-12.27,1.42-20.93,1.42-25.98,0-39.64-7.43-69.84-22.26-90.62-14.85-20.77-34.26-31.16-58.26-31.16-9.47,0-19.11,2.21-28.89,6.62-9.8,4.41-18.47,10.85-26.05,19.34-7.58,8.5-13.73,18.89-18.47,31.16-4.74,12.28-7.1,25.97-7.1,41.07,0,17.63,3.46,36.04,10.42,55.24,6.94,19.2,14.83,37.44,23.68,54.75,8.84,17.32,17.83,32.58,27,45.79,9.15,13.22,15.94,22.97,20.37,29.26Z"/>
  </g>
  <g>
    <g>
      <path class="st0" d="M317.78,279.05c0-13.63,10.01-23.57,24.35-23.57,5.11,0,9.09,1.42,12,3.12l3.48-1.63.92,12.14h-.43l-5.18-9.87c-1.85-1.49-5.96-3.12-10.72-3.12-12.07,0-19.38,9.37-19.38,22.36s7.38,22.79,19.03,22.79c8.45,0,12.42-3.69,16.05-10.22l1.78-2.98h.43l-2.56,10.22-2.48.5c-2.84,1.49-8.02,3.12-13.13,3.12-14.13,0-24.14-9.23-24.14-22.86Z"/>
      <path class="st0" d="M391.9,300.49l1.21-.07c2.2-.14,2.98-.14,2.98-.99v-38.27c0-4.4-.35-5.25-2.91-5.61l-1.56-.14.07-.28,8.38-1.99v46.43c0,.57.28.71,3.55.85l.99.07.21.43h-13.06l.14-.43Z"/>
      <path class="st0" d="M434.93,286.07c0-8.88,6.89-16.12,15.48-16.12s15.34,6.89,15.34,15.69-6.89,16.12-15.34,16.12-15.48-6.89-15.48-15.69ZM460.99,286.43c0-5.4-1.21-10.29-3.98-13.06-1.77-1.85-4.12-2.84-6.75-2.84-5.96,0-10.72,6.32-10.72,14.48,0,5.82,1.56,11,4.4,13.84,1.56,1.56,3.98,2.48,6.53,2.48,5.82,0,10.51-6.53,10.51-14.91Z"/>
      <path class="st0" d="M497.98,300.13l-.92-7.81h.43l1.49,3.19c1.92,3.83,5.18,5.75,8.09,5.75,4.33,0,7.24-2.7,7.24-6.6,0-4.19-2.91-6.18-8.24-7.81-3.62-1.14-7.95-3.48-7.95-8.31s4.47-8.59,9.51-8.59c2.2,0,4.19.5,6.04,1.42l2.27-.78.36,7.17-.5.07-3.27-5.47c-1.14-.78-2.56-1.85-4.9-1.85-3.91,0-6.25,2.13-6.25,5.68,0,3.9,2.91,5.32,7.1,6.82,4.47,1.56,9.3,3.12,9.3,9.44,0,5.18-4.83,9.3-11.08,9.3-3.2,0-6.11-.5-8.73-1.63Z"/>
      <path class="st0" d="M549.03,300.49l1.28-.07c2.2-.14,2.98-.14,2.98-.99v-21.16c0-4.26-.5-5.25-2.91-5.47l-1.63-.21.07-.28,8.45-2.2v29.46c0,.57.43.64,3.55.85l.99.07.21.43h-13.21l.21-.43ZM551.58,260.23c0-1.21.92-3.12,3.05-3.12s2.91,1.92,2.91,3.12c0,1.14-.85,2.98-2.91,2.98s-3.05-1.85-3.05-2.98Z"/>
      <path class="st0" d="M591.91,300.49l1.28-.07c2.2-.14,2.98-.14,2.98-.99v-21.02c0-4.4-.5-5.4-2.91-5.61l-1.63-.21.07-.28,8.52-2.2-.21,6.39.14.21c2.63-2.34,7.1-6.74,12.14-6.74,2.13,0,3.9.64,5.11,1.92,1.49,1.56,2.34,3.55,2.34,6.67v20.94c0,.43,0,.64,3.48.92l1.07.07.21.43h-13.13l.21-.43,1.28-.07c2.49-.14,2.98-.43,2.98-.99v-20.02c0-4.19-2.27-6.46-6.25-6.46-3.48,0-6.67,1.85-9.44,4.47v22.15c0,.57.43.64,3.62.85l.92.07.28.43h-13.28l.21-.43Z"/>
      <path class="st0" d="M653.68,310.71c0-4.05,4.9-7.6,8.52-8.95v-.07c-4.76-.35-7.81-1.77-7.81-4.61,0-3.62,4.4-6.6,8.38-7.24v-.07c-3.62-1.14-6.74-4.61-6.74-9.02,0-6.18,5.18-10.72,11.5-10.72,2.7,0,5.33.92,7.24,2.41l8.02-1.42-.43,2.48-6.6-.28-.07.14c1.78,1.63,3.27,4.12,3.27,6.82,0,6.04-5.25,10.44-11.79,10.44-1.49,0-3.05-.35-3.69-.5-2.91.57-5.18,2.41-5.18,4.4,0,2.34,1.63,3.27,6.04,3.27,1.85,0,5.47-.21,8.02-.21,6.39,0,10.44,2.91,10.44,7.46,0,7.67-7.38,13.56-17.61,13.56-6.82,0-11.5-2.98-11.5-7.88ZM680.37,308.08c0-3.98-2.77-6.39-8.95-6.6-2.06-.07-6.32.14-8.38.43-2.41.92-6.39,4.12-6.39,8.02,0,4.19,4.4,7.45,11.15,7.45,6.25,0,12.57-3.98,12.57-9.3ZM674.76,280.75c0-6.18-2.7-10.15-7.31-10.15-3.91,0-7.24,3.98-7.24,9.44,0,5.96,3.12,10.01,7.17,10.01s7.38-3.69,7.38-9.3Z"/>
    </g>
    <g>
      <path class="st0" d="M221.44,507.77c-1.28,0-2.48-.2-3.56-.68-1.12-.4-2.08-1-2.88-1.8-.84-.76-1.48-1.68-1.92-2.76-.48-1.04-.72-2.16-.72-3.44,0-1.2.24-2.36.72-3.4.44-1.04,1.08-1.92,1.92-2.68.8-.72,1.76-1.28,2.88-1.72,1.08-.4,2.28-.6,3.56-.6s2.48.2,3.6.6c1.08.44,2.04,1,2.88,1.72.8.76,1.44,1.64,1.92,2.68.44,1.04.68,2.2.68,3.4,0,1.28-.24,2.4-.68,3.44-.48,1.08-1.12,2-1.92,2.76-.84.8-1.8,1.4-2.88,1.8-1.12.48-2.32.68-3.6.68ZM221.44,492.77c-.8,0-1.56.16-2.28.4-.72.32-1.36.72-1.88,1.24-.56.56-1,1.2-1.28,1.96-.32.8-.48,1.72-.48,2.72s.16,1.96.48,2.72c.28.8.72,1.48,1.28,2,.52.56,1.16.96,1.88,1.2.72.32,1.48.44,2.28.44s1.56-.12,2.28-.44c.72-.24,1.36-.64,1.92-1.2.52-.52.96-1.2,1.28-2,.28-.76.44-1.68.44-2.72s-.16-1.92-.44-2.72c-.32-.76-.76-1.4-1.28-1.96-.56-.52-1.2-.92-1.92-1.24-.72-.24-1.48-.4-2.28-.4ZM236.08,495.53c-.32.08-.52.16-.68.24l-.48.28c-.16.08-.32.16-.48.16-.2.04-.44,0-.76-.08-.4-.08-.92-.28-1.48-.56-.6-.24-1.04-.48-1.32-.72-.4-.24-.56-.52-.56-.76,0-.32.2-.48.64-.48h1.12c.32.04.72.04,1.16.04h2.28c.88,0,1.8,0,2.68-.08v-6.48c0-.56-.28-1.04-.76-1.44-.56-.36-1.32-.72-2.28-1.04-.24-.08-.44-.16-.56-.32-.16-.08-.24-.24-.24-.48,0-.2.08-.36.32-.52.2-.12.52-.2,1-.2.24,0,.72.04,1.48.08.72.08,1.44.2,2.16.36.56.16,1.04.32,1.44.48.4.2.6.44.6.68,0,.32-.08.64-.16,1-.16.4-.2.88-.2,1.48v26c0,1.04-.08,2-.16,3.04-.12.96-.28,1.84-.52,2.6-.24.72-.6,1.08-1.08,1.08-.72,0-1.04-1.68-1.04-5v-10.6c-.32.04-.68.08-1,.08l-1.08.12c-.32.08-.52.16-.68.24l-.48.28c-.16.08-.32.16-.48.16-.2.04-.44,0-.76-.08-.4-.08-.92-.28-1.48-.56-.6-.24-1.04-.48-1.32-.72-.4-.24-.56-.52-.56-.76,0-.32.2-.48.64-.48h1.12c.32.04.72.04,1.16.04h2.28c.88,0,1.76,0,2.64-.08v-7.2c-.36.04-.68.08-1,.08-.36.04-.72.08-1.12.12Z"/>
      <path class="st0" d="M263.28,490.25c.32,0,.56-.08.8-.16.16-.04.36-.12.52-.2.16-.08.32-.12.48-.2.16-.04.32-.08.56-.08.32,0,.68.04,1.08.04.32.04.68.08,1,.16.28.08.52.2.76.32.16.16.28.36.28.6,0,.32-.16.64-.44.92-.32.32-.52.6-.64.88-3.6,8.2-9.16,14.6-16.68,19.2-.44.24-.76.24-1-.08-.24-.28-.2-.6.2-.96,3.12-2.56,5.88-5.44,8.36-8.6,2.4-3.12,4.32-6.52,5.72-10.2l-4,.12c-1.32.08-2.4.12-3.24.2-.4.08-.68.16-.92.28-.28.16-.52.28-.76.36-.24.16-.48.24-.72.28-.28.08-.6.04-.96-.12-.36-.08-.72-.24-1.04-.4-.4-.16-.72-.32-1-.48-.32-.16-.56-.28-.76-.44-.24-.12-.44-.24-.52-.32s-.16-.16-.2-.24c-.08-.08-.12-.16-.12-.32,0-.24.08-.4.32-.48.16-.08.44-.08.76-.04.64.12,1.28.2,1.96.2.64.04,1.24.04,1.84.04.44,0,1,0,1.68-.04.64,0,1.36,0,2.16-.04.72,0,1.52,0,2.32-.08.76,0,1.48-.04,2.2-.12ZM278.2,513.16c0,1.04-.08,2-.16,3.04-.12.96-.28,1.84-.52,2.6-.24.72-.6,1.08-1.08,1.08-.72,0-1.04-1.68-1.04-5v-27.8c0-.56-.28-1.04-.76-1.44-.56-.36-1.32-.72-2.28-1.04-.24-.08-.44-.16-.56-.32-.16-.08-.24-.24-.24-.48,0-.2.08-.36.32-.52.2-.12.52-.2,1-.2.24,0,.72.04,1.48.08.72.08,1.44.2,2.16.36.56.16,1.04.32,1.44.48.4.2.6.44.6.68,0,.32-.08.64-.16,1-.16.4-.2.88-.2,1.48v26Z"/>
      <path class="st0" d="M298.12,492.37c-1.2,3.52-2.8,6.64-4.72,9.36-1.96,2.8-4.2,5.4-6.72,7.8-.24.24-.44.36-.64.36-.24.04-.44,0-.56-.16-.32-.28-.32-.6,0-.92,4.4-4.96,7.56-10.68,9.48-17.16-1.04,0-2,.12-2.88.28-.32.08-.6.2-.84.28-.24.12-.48.2-.68.28-.24.08-.44.16-.64.16-.24.04-.52,0-.84-.16-.64-.24-1.16-.48-1.64-.8-.52-.24-.88-.48-1.04-.68-.08-.08-.12-.16-.16-.24-.08-.08-.12-.16-.12-.32,0-.24.08-.4.28-.48.16-.08.36-.08.68-.04.56.12,1.16.2,1.76.2.56.04,1.08.04,1.64.04s1.08,0,1.56-.08c.48-.04,1.04-.12,1.68-.2.28,0,.52-.08.72-.16.16-.08.36-.16.52-.24.12-.04.24-.08.4-.16.12-.04.28-.08.52-.08.4,0,.88.04,1.44.08.52.08.96.24,1.28.4.28.08.56.08.84.08h.84c.44,0,.88,0,1.36-.04.44,0,.92-.04,1.44-.12.56-.08,1.04-.2,1.36-.4.28-.16.6-.28.96-.28.24,0,.56.04.92.04.32.04.68.08,1,.16.28.08.52.2.76.32.16.16.28.36.28.56,0,.16-.04.28-.08.36-.08.12-.12.24-.2.32-.08.12-.16.24-.24.4-.12.16-.24.4-.32.68-.6,1.84-1.32,3.68-2.12,5.6-.84,1.92-1.8,3.84-2.84,5.72-1.08,1.92-2.28,3.8-3.56,5.56-1.32,1.84-2.76,3.48-4.32,5-.28.24-.52.4-.76.4-.28.04-.48,0-.6-.16-.16-.08-.2-.24-.2-.44,0-.16.08-.4.32-.72,1.12-1.44,2.28-3.04,3.4-4.8,1.08-1.72,2.08-3.52,3.04-5.44.92-1.84,1.76-3.76,2.52-5.68.72-1.92,1.28-3.76,1.72-5.56-.52,0-.92.04-1.2.04-.32.08-.72.16-1.2.24-.32.08-.6.16-.8.24-.24.08-.4.16-.56.2-.16.08-.32.12-.48.12-.2,0-.4-.04-.64-.12-.16-.04-.32-.08-.44-.16l-.4-.16c-.08.08-.12.2-.12.28-.08.16-.12.28-.16.4ZM313.96,498.17h1.36c.32,0,.64-.04.88-.16.24-.08.44-.2.68-.36.16-.12.36-.24.56-.36.16-.08.4-.16.64-.16.4,0,.84.04,1.32.04.4.08.84.16,1.32.28.4.12.68.28.88.48.16.24.24.52.24.8,0,.76-.52,1.12-1.52,1.12h-6.36v13.32c0,1.04-.08,2-.16,3.04-.12.96-.28,1.84-.52,2.6-.24.72-.6,1.08-1.08,1.08-.72,0-1.04-1.68-1.04-5v-27.8c0-.56-.28-1.04-.76-1.44-.56-.36-1.32-.72-2.28-1.04-.24-.08-.44-.16-.56-.32-.16-.08-.24-.24-.24-.48,0-.2.08-.36.32-.52.2-.12.52-.2,1-.2.24,0,.72.04,1.48.08.72.08,1.44.2,2.16.36.56.16,1.04.32,1.44.48.4.2.6.44.6.68,0,.32-.08.64-.16,1-.16.4-.2.88-.2,1.48v11Z"/>
      <path class="st0" d="M338.08,490.25c.32,0,.56-.08.8-.16.16-.04.36-.12.52-.2.16-.08.32-.12.48-.2.16-.04.32-.08.56-.08.32,0,.68.04,1.08.04.32.04.68.08,1,.16.28.08.52.2.76.32.16.16.28.36.28.6,0,.32-.16.64-.44.92-.32.32-.52.6-.64.88-1.24,2.8-2.68,5.36-4.36,7.76.56.64,1.16,1.2,1.72,1.68.52.56.88.92,1.12,1.08.2.16.44.28.72.36.24.12.48.2.76.28.24.12.52.24.76.32.24.16.44.32.68.56.4.56.8,1.12,1.16,1.72l1,1.96c.12.24.2.48.24.8,0,.36-.08.64-.32.84-.24.2-.52.28-.76.28-.16,0-.4-.12-.68-.32-.32-.16-.68-.48-1.12-1.04l-6.4-7.04c-3.08,3.92-6.8,7.24-11.2,9.96-.44.24-.76.24-1-.08-.24-.28-.2-.6.2-.96,3.12-2.56,5.88-5.44,8.28-8.6,2.36-3.12,4.24-6.52,5.6-10.2-1.28.04-2.52.08-3.64.12-1.2.08-2.2.12-3,.2-.4.08-.68.16-.92.28-.28.16-.52.28-.76.36-.24.16-.48.24-.72.28-.28.08-.6.04-.96-.12-.36-.08-.72-.24-1.04-.4-.4-.16-.72-.32-1-.48-.32-.16-.56-.28-.76-.44-.24-.12-.44-.24-.52-.32s-.16-.16-.2-.24c-.08-.08-.12-.16-.12-.32,0-.24.08-.4.32-.48.16-.08.44-.08.76-.04.64.12,1.28.2,1.96.2.64.04,1.24.04,1.84.04.92,0,2.12,0,3.64-.08,1.44,0,2.88-.08,4.32-.2ZM353.4,513.16c0,1.04-.08,2-.16,3.04-.12.96-.28,1.84-.52,2.6-.24.72-.6,1.08-1.08,1.08-.72,0-1.04-1.68-1.04-5v-27.8c0-.56-.28-1.04-.76-1.44-.56-.36-1.32-.72-2.28-1.04-.24-.08-.44-.16-.56-.32-.16-.08-.24-.24-.24-.48,0-.2.08-.36.32-.52.2-.12.52-.2,1-.2.24,0,.72.04,1.48.08.72.08,1.44.2,2.16.36.56.16,1.04.32,1.44.48.4.2.6.44.6.68,0,.32-.08.64-.16,1-.16.4-.2.88-.2,1.48v26Z"/>
      <path class="st0" d="M374.2,494.49c-.04-.28-.08-.56-.08-.8-.08-.2-.16-.4-.28-.64-.16-.16-.36-.36-.6-.56-.32-.16-.68-.32-1.16-.48-.24-.08-.44-.16-.56-.32-.16-.08-.24-.24-.24-.48,0-.2.08-.36.32-.52.2-.12.52-.2,1-.2.24,0,.64.04,1.28.08.56.08,1.24.2,1.96.36.12.08.24.08.36.08.08.04.16.08.28.12l9.04-.4c.4,0,.76-.08,1.04-.16.24-.08.44-.16.64-.28.16-.08.36-.16.56-.24.16-.04.36-.08.64-.08.32,0,.64.04,1.04.04.32.04.68.08,1,.16.28.08.52.2.76.32.2.16.32.36.32.6,0,.2-.04.36-.08.52-.08.16-.12.36-.2.52-.08.24-.16.48-.2.72-.08.32-.16.64-.16,1.04l-.84,11.96c.88.16,1.32.56,1.32,1.12,0,.4-.16.68-.48.8-.36.16-.76.2-1.2.2h-12.24c-.16.64-.32,1.04-.56,1.24-.28.24-.52.32-.72.32-.4,0-.72-.24-.88-.72-.2-.44-.32-1.24-.36-2.36l-.72-11.96ZM377.48,492.77l.16,12.8v.6l10.04-.2v-13.4l-10.2.2ZM399.96,498.17h1.36c.32,0,.64-.04.88-.16.24-.08.44-.2.68-.36.16-.12.36-.24.56-.36.16-.08.4-.16.64-.16.4,0,.84.04,1.32.04.4.08.84.16,1.32.28.4.12.68.28.88.48.16.24.24.52.24.8,0,.76-.52,1.12-1.52,1.12h-6.36v13.32c0,1.04-.08,2-.16,3.04-.12.96-.28,1.84-.52,2.6-.24.72-.6,1.08-1.08,1.08-.72,0-1.04-1.68-1.04-5v-27.8c0-.56-.28-1.04-.76-1.44-.56-.36-1.32-.72-2.28-1.04-.24-.08-.44-.16-.56-.32-.16-.08-.24-.24-.24-.48,0-.2.08-.36.32-.52.2-.12.52-.2,1-.2.24,0,.72.04,1.48.08.72.08,1.44.2,2.16.36.56.16,1.04.32,1.44.48.4.2.6.44.6.68,0,.32-.08.64-.16,1-.16.4-.2.88-.2,1.48v11Z"/>
      <path class="st0" d="M443.15,503.61c-1.04,0-2.28-.04-3.72-.08h-4.6c-1.64.04-3.28.04-4.96.04-1.72.04-3.32.08-4.8.08-1.52.08-2.92.12-4.12.16-1.24.08-2.2.16-2.88.24-.48.08-.88.16-1.2.28-.36.16-.68.28-1,.36-.36.16-.72.24-1.04.24-.36.08-.76,0-1.16-.16-.88-.28-1.6-.6-2.2-1-.64-.36-1.04-.64-1.28-.88-.12-.08-.2-.16-.28-.28-.08-.08-.12-.2-.12-.36,0-.28.12-.48.36-.6.24-.08.52-.08.92-.04.76.16,1.6.24,2.56.28.92.08,1.72.08,2.44.08h2c.96,0,2.12,0,3.4-.04,1.24,0,2.6,0,4.04-.04,1.44,0,2.8,0,4.16-.04,1.28,0,2.48-.04,3.6-.08,1.04,0,1.88-.04,2.44-.12.72-.04,1.32-.12,1.76-.24.4-.08.72-.2.96-.32.24-.08.44-.2.64-.28.16-.08.36-.12.68-.12.24,0,.52.04.88.04.32.04.68.08,1.08.08.32.08.68.12,1.08.16.32.08.64.12.92.2.48.16.8.32,1,.48.16.2.28.44.28.72,0,.4-.16.68-.44.92-.32.24-.8.36-1.4.32ZM418.4,511.24c-.04-.28-.08-.56-.08-.8-.08-.2-.16-.4-.28-.64-.16-.16-.4-.36-.68-.56-.32-.16-.68-.32-1.16-.48-.24-.08-.44-.16-.56-.32-.16-.08-.24-.24-.24-.48,0-.2.08-.36.32-.52.2-.12.52-.2,1-.2.24,0,.64.04,1.24.08.56.08,1.2.2,1.92.36.24.08.44.12.56.16l11.92-.36c.4,0,.76-.04,1.04-.12.24-.08.44-.16.64-.28.16-.08.36-.16.56-.24.16-.08.36-.12.64-.12.32,0,.64.04,1.04.04.32.08.68.12,1,.2.28.08.52.2.76.32.16.16.28.36.28.56,0,.48-.08.88-.24,1.2-.2.4-.32.92-.4,1.56l-.8,6.4c.84.16,1.28.52,1.28,1.12,0,.4-.16.64-.48.8-.36.12-.76.2-1.2.2l-14.92.12c-.16.6-.32,1-.56,1.24-.28.2-.52.32-.72.32-.4,0-.72-.24-.88-.68-.2-.48-.36-1.28-.44-2.4l-.56-6.48ZM418.2,491.73c0-1.04.2-2,.68-2.88.44-.88,1.08-1.64,1.92-2.28.8-.64,1.76-1.12,2.88-1.48,1.08-.32,2.28-.52,3.64-.52,1.28,0,2.52.2,3.64.52,1.12.36,2.08.84,2.92,1.44.8.64,1.48,1.4,1.96,2.28.44.88.68,1.88.68,2.92s-.24,2.04-.68,2.92c-.48.88-1.16,1.64-1.96,2.24-.84.64-1.8,1.16-2.92,1.48-1.12.36-2.36.52-3.64.52-1.36,0-2.56-.16-3.64-.52-1.12-.32-2.08-.84-2.88-1.48-.84-.6-1.48-1.36-1.92-2.24-.48-.88-.68-1.84-.68-2.92ZM421.24,491.73c0,1.6.56,2.88,1.76,3.76,1.12.92,2.6,1.36,4.4,1.36s3.24-.44,4.44-1.36c1.16-.88,1.76-2.16,1.76-3.76s-.6-2.84-1.76-3.76c-1.2-.88-2.68-1.36-4.44-1.36s-3.28.48-4.4,1.36c-1.2.92-1.76,2.16-1.76,3.76ZM421.64,509.64l.16,7.2v.48l12.72-.28.04-7.64-12.92.24Z"/>
      <path class="st0" d="M480.75,502.25c-1.04,0-2.28-.04-3.72-.08h-4.6c-1.64.04-3.28.04-4.96.04-1.72.04-3.32.08-4.8.08-1.52.08-2.92.12-4.12.16-1.24.08-2.2.16-2.88.24-.48.08-.88.16-1.2.28-.36.16-.68.28-1,.36-.36.16-.72.24-1.04.24-.36.08-.76,0-1.16-.16-.88-.28-1.6-.6-2.2-1-.64-.36-1.04-.64-1.28-.88-.12-.08-.2-.16-.28-.28-.08-.08-.12-.2-.12-.36,0-.28.12-.48.36-.6.24-.08.52-.08.92-.04.76.16,1.6.24,2.56.28.92.08,1.72.08,2.44.08h2c.96,0,2.12,0,3.4-.04,1.24,0,2.6,0,4.04-.04,1.44,0,2.8,0,4.16-.04,1.28,0,2.48-.04,3.6-.08,1.04,0,1.88-.04,2.44-.12.72-.04,1.32-.12,1.76-.24.4-.08.72-.2.96-.32.24-.08.44-.2.64-.28.16-.08.36-.12.68-.12.24,0,.52.04.88.04.32.04.68.08,1.08.08.32.08.68.12,1.08.16.32.08.64.12.92.2.48.16.8.32,1,.48.16.2.28.44.28.72,0,.4-.16.68-.44.92-.32.24-.8.36-1.4.32ZM471.44,518.04c.32,0,.64-.08.88-.16.24-.16.44-.28.68-.36.16-.16.36-.28.56-.36.16-.12.4-.16.64-.16.4,0,.84,0,1.32.08.4,0,.84.08,1.32.24.4.08.68.28.88.52.16.2.24.44.24.76,0,.72-.52,1.12-1.52,1.12l-16.96.16c-2.08.04-3.12-1.04-3.12-3.24v-1.84c0-.4-.16-.72-.48-1.04-.36-.32-1.04-.64-2-.96-.24-.08-.44-.16-.56-.32-.16-.08-.24-.24-.24-.48,0-.2.08-.36.32-.52.2-.12.52-.2,1-.2.24,0,.64.04,1.24.08.56.08,1.2.16,1.92.32.2.08.4.12.64.16.16.08.32.2.48.28l13.48-.28v-4.4h-2.28c-1.04.04-2.16.08-3.32.08-1.2.04-2.32.08-3.36.12-1.08.08-1.88.12-2.36.16-.4.08-.68.16-.92.24-.28.16-.52.28-.76.36-.24.16-.52.24-.76.28-.28.08-.6.04-.96-.12-.36-.08-.72-.24-1.04-.4-.4-.16-.72-.32-1-.48-.32-.16-.6-.32-.8-.48-.24-.12-.44-.24-.52-.32s-.16-.16-.2-.24c-.08-.08-.12-.16-.12-.32,0-.24.08-.4.32-.48.16-.08.44-.08.76-.04.64.12,1.28.2,1.96.2.64.04,1.24.04,1.84.04.48,0,1.24,0,2.28-.04.96,0,2.04,0,3.16-.04,1.12,0,2.2,0,3.28-.04,1.04,0,1.92-.04,2.6-.12.4,0,.76-.08,1-.16.24-.04.44-.12.64-.2.16-.08.32-.12.48-.2.16-.04.36-.08.64-.08.32,0,.64.04,1,.04.32.08.64.12.96.2.28.08.52.2.72.32.16.16.28.36.28.56,0,.16-.04.32-.04.44-.08.16-.12.28-.16.44-.08.16-.16.36-.24.6-.08.24-.16.56-.24.92l-.64,3.12c.72.04,1.12.36,1.12.92,0,.4-.16.64-.4.72-.32.12-.68.16-1.12.16l-14.72.16v3.28c0,.76.36,1.16,1.08,1.16l11.12-.16ZM455.8,491.01c0-1.04.2-1.96.68-2.84.44-.8,1.08-1.52,1.92-2.16.8-.56,1.76-1.04,2.88-1.36,1.08-.32,2.28-.48,3.64-.48,1.28,0,2.52.16,3.64.48,1.12.32,2.08.8,2.92,1.36.8.64,1.48,1.36,1.96,2.16.44.88.68,1.8.68,2.84s-.24,2-.68,2.8c-.48.88-1.16,1.6-1.96,2.16-.84.64-1.8,1.08-2.92,1.4-1.12.32-2.36.48-3.64.48-1.36,0-2.56-.16-3.64-.48-1.12-.32-2.08-.76-2.88-1.4-.84-.56-1.48-1.28-1.92-2.16-.48-.8-.68-1.76-.68-2.8ZM458.84,491.01c0,1.56.56,2.76,1.76,3.56,1.12.84,2.6,1.24,4.4,1.24s3.24-.4,4.44-1.24c1.16-.8,1.76-2,1.76-3.56s-.6-2.72-1.76-3.56c-1.2-.8-2.68-1.24-4.44-1.24s-3.28.44-4.4,1.24c-1.2.84-1.76,2.04-1.76,3.56Z"/>
      <path class="st0" d="M500.04,491.37c0-.56-.24-1.04-.68-1.44-.48-.32-1.2-.68-2.16-1-.24-.08-.44-.16-.56-.32-.16-.08-.24-.24-.24-.48,0-.2.08-.36.32-.52.2-.12.52-.2,1-.2.24,0,.72.04,1.52.08.72.08,1.48.16,2.2.32.12.08.24.08.36.08.08.04.2.08.32.12l7.72-.2c.32,0,.64-.04.88-.2.24-.08.44-.2.68-.36.16-.08.36-.2.56-.32.16-.08.4-.16.64-.16.4,0,.92.04,1.52.04.56.08,1.04.16,1.52.28.4.12.68.28.88.48.16.24.24.52.24.8,0,.76-.52,1.12-1.52,1.12l-12.12.16v9.72c0,.4.08.64.24.72.12.16.36.2.68.2,2.76,0,5.6-.28,8.56-.84,2.92-.52,5.76-1.2,8.56-2.08v-10.28c0-.56-.28-1.04-.76-1.44-.56-.36-1.32-.72-2.28-1.04-.24-.08-.44-.16-.56-.32-.16-.08-.24-.24-.24-.48,0-.2.08-.36.32-.52.2-.12.52-.2,1-.2.24,0,.72.04,1.48.08.72.08,1.44.2,2.16.36.56.16,1.04.32,1.44.48.4.2.6.44.6.68,0,.32-.08.64-.16,1-.16.4-.2.88-.2,1.48v6.6h1.36c.32,0,.64-.04.88-.16.24-.08.44-.2.68-.36.16-.12.36-.24.56-.36.16-.08.4-.16.64-.16.4,0,.84.04,1.32.04.4.08.84.16,1.32.28.4.12.68.28.88.48.16.24.24.52.24.8,0,.76-.52,1.12-1.52,1.12h-6.36v1.96c0,.56-.04,1.24-.04,2.04-.04.84-.12,1.64-.2,2.36-.12.76-.28,1.4-.52,1.92-.24.56-.6.8-1,.8-.16,0-.32-.04-.44-.2-.16-.12-.24-.36-.32-.68s-.16-.72-.2-1.28c-.08-.52-.08-1.2-.08-2.04v-1.32c-1.44.56-3,1.04-4.6,1.52-1.68.48-3.28.92-4.88,1.28-1.6.4-3.12.68-4.52.88-1.44.24-2.68.32-3.64.32-1.28,0-2.2-.32-2.68-1-.56-.64-.8-1.6-.8-2.88v-7.76ZM506.68,509.96c-.04-.28-.08-.56-.12-.8-.08-.2-.16-.4-.28-.64-.16-.16-.4-.36-.64-.56-.32-.16-.68-.32-1.16-.48-.24-.08-.44-.16-.56-.32-.16-.08-.24-.24-.24-.48,0-.2.08-.36.32-.52.2-.12.52-.2,1-.2.24,0,.64.04,1.24.08.56.08,1.2.2,1.92.36.12.08.24.08.36.08.08.04.16.08.28.12l9.6-.4c.4,0,.76-.08,1.04-.16.24-.08.44-.16.64-.28.16-.08.36-.16.56-.24.16-.04.36-.08.64-.08.32,0,.64.04,1.04.04.32.04.68.08,1,.16.28.08.52.2.76.32.16.16.28.36.28.6,0,.2-.04.36-.08.52l-.2.56c-.08.2-.12.44-.16.68-.08.32-.16.64-.2,1.04l-.84,7.16c.88.16,1.32.52,1.32,1.12,0,.4-.16.64-.48.8-.36.12-.76.2-1.2.2h-12.76c-.16.6-.32,1-.56,1.24-.28.2-.52.32-.72.32-.4,0-.68-.24-.84-.68-.16-.48-.32-1.28-.4-2.4l-.56-7.16ZM509.8,508.24l.16,8v.56l10.8-.16v-8.6l-10.96.2Z"/>
      <path class="st0" d="M544.24,507.77c-1.28,0-2.48-.2-3.56-.68-1.12-.4-2.08-1-2.88-1.8-.84-.76-1.48-1.68-1.92-2.76-.48-1.04-.72-2.16-.72-3.44,0-1.2.24-2.36.72-3.4.44-1.04,1.08-1.92,1.92-2.68.8-.72,1.76-1.28,2.88-1.72,1.08-.4,2.28-.6,3.56-.6s2.48.2,3.6.6c1.08.44,2.04,1,2.88,1.72.8.76,1.44,1.64,1.92,2.68.44,1.04.68,2.2.68,3.4,0,1.28-.24,2.4-.68,3.44-.48,1.08-1.12,2-1.92,2.76-.84.8-1.8,1.4-2.88,1.8-1.12.48-2.32.68-3.6.68ZM544.24,492.77c-.8,0-1.56.16-2.28.4-.72.32-1.36.72-1.88,1.24-.56.56-1,1.2-1.28,1.96-.32.8-.48,1.72-.48,2.72s.16,1.96.48,2.72c.28.8.72,1.48,1.28,2,.52.56,1.16.96,1.88,1.2.72.32,1.48.44,2.28.44s1.56-.12,2.28-.44c.72-.24,1.36-.64,1.92-1.2.52-.52.96-1.2,1.28-2,.28-.76.44-1.68.44-2.72s-.16-1.92-.44-2.72c-.32-.76-.76-1.4-1.28-1.96-.56-.52-1.2-.92-1.92-1.24-.72-.24-1.48-.4-2.28-.4ZM561.55,498.17h1.36c.32,0,.64-.04.88-.16.24-.08.44-.2.68-.36.16-.12.36-.24.56-.36.16-.08.4-.16.64-.16.4,0,.84.04,1.32.04.4.08.84.16,1.32.28.4.12.68.28.88.48.16.24.24.52.24.8,0,.76-.52,1.12-1.52,1.12h-6.36v13.32c0,1.04-.08,2-.16,3.04-.12.96-.28,1.84-.52,2.6-.24.72-.6,1.08-1.08,1.08-.72,0-1.04-1.68-1.04-5v-27.8c0-.56-.28-1.04-.76-1.44-.56-.36-1.32-.72-2.28-1.04-.24-.08-.44-.16-.56-.32-.16-.08-.24-.24-.24-.48,0-.2.08-.36.32-.52.2-.12.52-.2,1-.2.24,0,.72.04,1.48.08.72.08,1.44.2,2.16.36.56.16,1.04.32,1.44.48.4.2.6.44.6.68,0,.32-.08.64-.16,1-.16.4-.2.88-.2,1.48v11Z"/>
      <path class="st0" d="M597.08,487.85c.32,0,.56-.08.8-.16.16-.04.36-.12.52-.2s.32-.12.48-.2c.16-.04.32-.08.56-.08.32,0,.68.04,1.08.04.32.04.68.08,1,.16.28.08.52.2.76.32.16.16.28.36.28.6,0,.32-.16.64-.4.92-.32.32-.52.6-.68.88-1.32,2.52-2.92,4.84-4.84,7,.64.56,1.24,1.12,1.84,1.6.56.56.96.88,1.12.96.2.16.44.24.72.28.24.08.52.12.84.16.24.08.52.16.8.24.24.12.44.28.64.48l.56.8c.16.32.36.64.52.96.16.32.28.64.4.92.08.32.16.56.16.76,0,.48-.24.76-.72.84-.16.04-.4-.04-.68-.2-.32-.12-.68-.4-1.12-.84l-6.28-5.72c-3.16,3.24-6.88,5.88-11.16,7.96-.24.12-.44.16-.6.12-.24,0-.4-.04-.48-.2-.12-.12-.16-.28-.08-.48.04-.16.2-.36.44-.52,3.32-2.16,6.2-4.52,8.64-7.16,2.4-2.56,4.28-5.44,5.72-8.6-1.28.04-2.52.08-3.68.12-1.2.08-2.2.12-3,.2-.4.08-.68.16-.92.28-.28.16-.52.28-.76.36-.24.16-.48.24-.72.28-.28.08-.6.04-.96-.12-.36-.08-.72-.24-1.04-.4-.4-.16-.72-.32-1-.48-.32-.16-.56-.28-.76-.44-.24-.12-.44-.24-.52-.32-.08-.08-.16-.16-.2-.24-.08-.08-.12-.16-.12-.32,0-.24.08-.4.32-.48.16-.08.44-.08.76-.04.64.12,1.28.2,1.96.2.64.04,1.24.04,1.84.04.92,0,2.12,0,3.64-.08,1.44,0,2.88-.08,4.32-.2ZM608.31,516.92c.32,0,.64-.08.88-.16.24-.16.44-.28.68-.36.16-.16.36-.28.56-.36.16-.12.4-.16.64-.16.4,0,.84,0,1.32.08.4,0,.84.08,1.32.24.4.08.68.28.88.52.16.2.24.44.24.76,0,.72-.52,1.12-1.52,1.12l-15.64.16c-2.08.04-3.12-1.04-3.12-3.24v-4.32c0-.56-.24-1.04-.72-1.44-.52-.36-1.28-.72-2.24-1.04-.24-.08-.44-.16-.56-.32-.16-.08-.24-.24-.24-.48,0-.2.08-.36.32-.52.2-.12.52-.2,1-.2.24,0,.72.04,1.48.08.72.08,1.44.2,2.16.36.56.16.96.32,1.28.52.24.24.4.52.4.76v7c0,.76.36,1.16,1.08,1.16l9.8-.16ZM607.36,496.45c-.32.08-.52.16-.68.24l-.48.28c-.16.08-.32.16-.48.16-.2.04-.44,0-.76-.08-.4-.08-.92-.28-1.48-.56-.6-.24-1.04-.48-1.32-.72-.4-.24-.56-.52-.56-.76,0-.32.2-.48.64-.48h1.12c.32.04.72.04,1.16.04h2.4c.92,0,1.84,0,2.76-.08v-7.4c0-.56-.28-1.04-.76-1.44-.56-.36-1.32-.72-2.28-1.04-.24-.08-.44-.16-.56-.32-.16-.08-.24-.24-.24-.48,0-.2.08-.36.32-.52.2-.12.52-.2,1-.2.24,0,.72.04,1.48.08.72.08,1.44.2,2.16.36.56.16,1.04.32,1.44.48.4.2.6.44.6.68,0,.32-.08.64-.16,1-.16.4-.2.88-.2,1.48v16.8c0,.56-.04,1.24-.04,2.04-.04.84-.12,1.64-.2,2.36-.12.76-.28,1.4-.52,1.92-.24.56-.6.8-1,.8-.16,0-.32-.04-.44-.2-.16-.12-.24-.36-.32-.68-.08-.32-.16-.72-.2-1.28-.08-.52-.08-1.2-.08-2.04v-10.64c-.4.04-.76.08-1.08.08-.4.04-.8.08-1.24.12Z"/>
      <path class="st0" d="M636.16,490.89c.36,0,.68-.08.96-.2.24-.08.44-.2.68-.32.16-.08.36-.2.56-.28.16-.08.4-.12.68-.12.44,0,.88.04,1.36.04.44.08.92.16,1.4.28.8.24,1.2.72,1.2,1.36,0,.76-.56,1.12-1.6,1.12h-3.88c-1.36,0-2.64.04-3.84.04-1.28.08-2.44.12-3.48.12-1.12.08-2.04.12-2.8.2-.4.04-.72.12-.96.24-.32.16-.6.32-.84.4-.28.16-.56.24-.8.28-.32.08-.64.04-1.04-.12-.72-.24-1.44-.56-2.08-.96-.72-.4-1.16-.68-1.36-.88-.08-.08-.16-.16-.2-.24-.08-.08-.12-.16-.12-.32,0-.24.08-.44.32-.52.2-.08.48-.08.8-.04.68.12,1.36.2,2.08.2.64.08,1.28.08,1.92.08h2.36c.64.04,1.36.04,2.16,0,.72,0,1.6-.04,2.64-.12,1,0,2.28-.08,3.88-.24ZM624.44,500.65c0-1.76.68-3.16,2.04-4.28,1.32-1.04,3.16-1.6,5.52-1.6s4.16.56,5.52,1.6c1.32,1.12,2,2.52,2,4.28s-.68,3.16-2.04,4.2c-1.36,1.08-3.2,1.6-5.48,1.6s-4.16-.52-5.52-1.6c-1.36-1.04-2.04-2.44-2.04-4.2ZM636.52,487.37c0,.4-.2.68-.52.84-.36.24-.76.36-1.24.4-.96.16-1.88.24-2.76.24-.92.08-1.92.08-3.04.04-.32,0-.6-.04-.88-.2-.32-.12-.6-.28-.84-.52-.32-.2-.56-.44-.8-.68-.24-.24-.44-.48-.6-.72-.12-.12-.16-.28-.16-.48,0-.16.08-.32.32-.4.16-.08.48-.04.88.08.28.08.6.16,1,.2.36.08.76.16,1.16.2.32.08.68.08,1.16.08.4.04.88.04,1.4.04.48,0,1,0,1.56-.04.52,0,1.04,0,1.52-.04.6,0,1.08.08,1.4.16.28.16.44.4.44.8ZM644,516.92c.32,0,.64-.08.88-.16.24-.16.44-.28.68-.36.16-.16.36-.28.56-.36.16-.12.4-.16.64-.16.4,0,.84,0,1.32.08.4,0,.84.08,1.32.24.4.08.68.28.88.52.16.2.24.44.24.76,0,.72-.52,1.12-1.52,1.12l-15.24.16c-2.08.04-3.12-1.04-3.12-3.24v-3.12c0-.56-.24-1.04-.72-1.44-.52-.36-1.28-.72-2.24-1.04-.24-.08-.44-.16-.56-.32-.16-.08-.24-.24-.24-.48,0-.2.08-.36.32-.52.2-.12.52-.2,1-.2.24,0,.72.04,1.48.08.72.08,1.44.2,2.16.36.56.16.96.32,1.28.52.24.24.4.52.4.76v5.8c0,.76.36,1.16,1.08,1.16l9.4-.16ZM627.32,500.53c0,1.12.4,2.04,1.28,2.72.84.72,1.96,1.04,3.4,1.04,1.36,0,2.48-.32,3.36-1.04.8-.68,1.24-1.6,1.24-2.72s-.44-2.04-1.24-2.72c-.88-.64-2-1-3.36-1-1.44,0-2.56.36-3.4,1-.88.68-1.28,1.6-1.28,2.72ZM647.95,496.97h1.36c.32,0,.64-.04.88-.16.24-.08.44-.2.68-.36.16-.12.36-.24.56-.36.16-.08.4-.16.64-.16.4,0,.84.04,1.32.04.4.08.84.16,1.32.28.4.12.68.28.88.48.16.24.24.52.24.8,0,.76-.52,1.12-1.52,1.12h-6.36v5.32c0,.56-.04,1.24-.04,2.04-.04.84-.12,1.64-.2,2.36-.12.76-.28,1.4-.52,1.92-.24.56-.6.8-1,.8-.16,0-.32-.04-.44-.2-.16-.12-.24-.36-.32-.68s-.16-.72-.2-1.28c-.08-.52-.08-1.2-.08-2.04v-19.8c0-.56-.28-1.04-.76-1.44-.56-.36-1.32-.72-2.28-1.04-.24-.08-.44-.16-.56-.32-.16-.08-.24-.24-.24-.48,0-.2.08-.36.32-.52.2-.12.52-.2,1-.2.24,0,.72.04,1.48.08.72.08,1.44.2,2.16.36.56.16,1.04.32,1.44.48.4.2.6.44.6.68,0,.32-.08.64-.16,1-.16.4-.2.88-.2,1.48v9.8Z"/>
      <path class="st0" d="M680.24,507.77c-1.28,0-2.48-.2-3.56-.68-1.12-.4-2.08-1-2.88-1.8-.84-.76-1.48-1.68-1.92-2.76-.48-1.04-.72-2.16-.72-3.44,0-1.2.24-2.36.72-3.4.44-1.04,1.08-1.92,1.92-2.68.8-.72,1.76-1.28,2.88-1.72,1.08-.4,2.28-.6,3.56-.6s2.48.2,3.6.6c1.08.44,2.04,1,2.88,1.72.8.76,1.44,1.64,1.92,2.68.44,1.04.68,2.2.68,3.4,0,1.28-.24,2.4-.68,3.44-.48,1.08-1.12,2-1.92,2.76-.84.8-1.8,1.4-2.88,1.8-1.12.48-2.32.68-3.6.68ZM680.24,492.77c-.8,0-1.56.16-2.28.4-.72.32-1.36.72-1.88,1.24-.56.56-1,1.2-1.28,1.96-.32.8-.48,1.72-.48,2.72s.16,1.96.48,2.72c.28.8.72,1.48,1.28,2,.52.56,1.16.96,1.88,1.2.72.32,1.48.44,2.28.44s1.56-.12,2.28-.44c.72-.24,1.36-.64,1.92-1.2.52-.52.96-1.2,1.28-2,.28-.76.44-1.68.44-2.72s-.16-1.92-.44-2.72c-.32-.76-.76-1.4-1.28-1.96-.56-.52-1.2-.92-1.92-1.24-.72-.24-1.48-.4-2.28-.4ZM698.99,513.16c0,1.04-.08,2-.16,3.04-.12.96-.28,1.84-.52,2.6-.24.72-.6,1.08-1.08,1.08-.72,0-1.04-1.68-1.04-5v-27.8c0-.56-.28-1.04-.76-1.44-.56-.36-1.32-.72-2.28-1.04-.24-.08-.44-.16-.56-.32-.16-.08-.24-.24-.24-.48,0-.2.08-.36.32-.52.2-.12.52-.2,1-.2.24,0,.72.04,1.48.08.72.08,1.44.2,2.16.36.56.16,1.04.32,1.44.48.4.2.6.44.6.68,0,.32-.08.64-.16,1-.16.4-.2.88-.2,1.48v26Z"/>
      <path class="st0" d="M717.04,507.77c-1.28,0-2.48-.2-3.56-.68-1.12-.4-2.08-1-2.88-1.8-.84-.76-1.48-1.68-1.92-2.76-.48-1.04-.72-2.16-.72-3.44,0-1.2.24-2.36.72-3.4.44-1.04,1.08-1.92,1.92-2.68.8-.72,1.76-1.28,2.88-1.72,1.08-.4,2.28-.6,3.56-.6s2.48.2,3.6.6c1.08.44,2.04,1,2.88,1.72.8.76,1.44,1.64,1.92,2.68.44,1.04.68,2.2.68,3.4,0,1.28-.24,2.4-.68,3.44-.48,1.08-1.12,2-1.92,2.76-.84.8-1.8,1.4-2.88,1.8-1.12.48-2.32.68-3.6.68ZM717.04,492.77c-.8,0-1.56.16-2.28.4-.72.32-1.36.72-1.88,1.24-.56.56-1,1.2-1.28,1.96-.32.8-.48,1.72-.48,2.72s.16,1.96.48,2.72c.28.8.72,1.48,1.28,2,.52.56,1.16.96,1.88,1.2.72.32,1.48.44,2.28.44s1.56-.12,2.28-.44c.72-.24,1.36-.64,1.92-1.2.52-.52.96-1.2,1.28-2,.28-.76.44-1.68.44-2.72s-.16-1.92-.44-2.72c-.32-.76-.76-1.4-1.28-1.96-.56-.52-1.2-.92-1.92-1.24-.72-.24-1.48-.4-2.28-.4ZM734.35,493.65h1.36c.32,0,.64-.04.88-.16.24-.08.44-.2.68-.36.16-.12.36-.24.56-.36.16-.08.4-.16.64-.16.4,0,.84.04,1.32.04.4.08.84.16,1.32.28.4.12.68.28.88.48.16.24.24.52.24.8,0,.76-.52,1.12-1.52,1.12h-6.36v8.32h1.36c.32,0,.64-.04.88-.16.24-.08.44-.2.68-.36.16-.12.36-.24.56-.36.16-.08.4-.16.64-.16.4,0,.84.04,1.32.04.4.08.84.16,1.32.28.4.12.68.28.88.48.16.24.24.52.24.8,0,.76-.52,1.12-1.52,1.12h-6.36v7.84c0,1.04-.08,2-.16,3.04-.12.96-.28,1.84-.52,2.6-.24.72-.6,1.08-1.08,1.08-.72,0-1.04-1.68-1.04-5v-27.8c0-.56-.28-1.04-.76-1.44-.56-.36-1.32-.72-2.28-1.04-.24-.08-.44-.16-.56-.32-.16-.08-.24-.24-.24-.48,0-.2.08-.36.32-.52.2-.12.52-.2,1-.2.24,0,.72.04,1.48.08.72.08,1.44.2,2.16.36.56.16,1.04.32,1.44.48.4.2.6.44.6.68,0,.32-.08.64-.16,1-.16.4-.2.88-.2,1.48v6.48Z"/>
      <path class="st0" d="M759.27,490.25c.32,0,.56-.08.8-.16.16-.04.36-.12.52-.2.16-.08.32-.12.48-.2.16-.04.32-.08.56-.08.32,0,.68.04,1.08.04.32.04.68.08,1,.16.28.08.52.2.76.32.16.16.28.36.28.6,0,.32-.16.64-.44.92-.32.32-.52.6-.64.88-3.6,8.2-9.16,14.6-16.68,19.2-.44.24-.76.24-1-.08-.24-.28-.2-.6.2-.96,3.12-2.56,5.88-5.44,8.36-8.6,2.4-3.12,4.32-6.52,5.72-10.2l-4,.12c-1.32.08-2.4.12-3.24.2-.4.08-.68.16-.92.28-.28.16-.52.28-.76.36-.24.16-.48.24-.72.28-.28.08-.6.04-.96-.12-.36-.08-.72-.24-1.04-.4-.4-.16-.72-.32-1-.48-.32-.16-.56-.28-.76-.44-.24-.12-.44-.24-.52-.32s-.16-.16-.2-.24c-.08-.08-.12-.16-.12-.32,0-.24.08-.4.32-.48.16-.08.44-.08.76-.04.64.12,1.28.2,1.96.2.64.04,1.24.04,1.84.04.44,0,1,0,1.68-.04.64,0,1.36,0,2.16-.04.72,0,1.52,0,2.32-.08.76,0,1.48-.04,2.2-.12ZM774.19,513.16c0,1.04-.08,2-.16,3.04-.12.96-.28,1.84-.52,2.6-.24.72-.6,1.08-1.08,1.08-.72,0-1.04-1.68-1.04-5v-27.8c0-.56-.28-1.04-.76-1.44-.56-.36-1.32-.72-2.28-1.04-.24-.08-.44-.16-.56-.32-.16-.08-.24-.24-.24-.48,0-.2.08-.36.32-.52.2-.12.52-.2,1-.2.24,0,.72.04,1.48.08.72.08,1.44.2,2.16.36.56.16,1.04.32,1.44.48.4.2.6.44.6.68,0,.32-.08.64-.16,1-.16.4-.2.88-.2,1.48v26Z"/>
      <path class="st0" d="M785.04,516.28c-.64.12-1.2-.04-1.68-.48-.52-.48-.76-1.04-.76-1.68,0-.68.2-1.24.6-1.68.36-.4.88-.6,1.6-.6.84,0,1.48.32,1.88.88.4.64.6,1.4.6,2.36,0,.6-.08,1.2-.2,1.84-.16.6-.4,1.2-.68,1.76-.32.52-.68,1-1.12,1.48-.48.44-1,.8-1.6,1.08-.08.04-.16.08-.28.12-.16,0-.28-.08-.32-.2-.08-.16-.08-.24,0-.32l.2-.16c.36-.24.68-.48,1-.8.28-.36.52-.72.76-1.08.2-.4.36-.8.48-1.16.08-.4.16-.76.16-1.08s-.24-.4-.64-.28Z"/>
      <path class="st0" d="M313.4,601.85c-1.2,0-2.36-.16-3.4-.56-1.08-.32-2-.84-2.8-1.52-.8-.64-1.44-1.48-1.88-2.44-.48-.96-.72-2.04-.72-3.24s.24-2.32.72-3.28c.44-.96,1.08-1.76,1.88-2.44.8-.64,1.72-1.16,2.8-1.52,1.04-.32,2.2-.52,3.4-.52s2.32.2,3.4.52c1.04.36,2,.88,2.8,1.52.8.68,1.44,1.48,1.92,2.44.44.96.68,2.08.68,3.28s-.24,2.32-.68,3.28c-.48.96-1.12,1.8-1.92,2.44-.8.68-1.76,1.2-2.8,1.52-1.08.36-2.2.52-3.4.52ZM310.28,613.92c0-.36-.16-.72-.4-1.04-.28-.28-.92-.6-1.88-.92-.24-.08-.44-.16-.56-.32-.16-.08-.24-.24-.24-.48,0-.2.08-.36.32-.52.2-.12.52-.2,1-.2.24,0,.6.04,1.12.04.48.08,1.12.16,1.84.32.36.12.64.2.8.28l4.76-.12v-4.16c-.48,0-1.04.04-1.68.04-.68.08-1.28.12-1.8.2-.44.08-.8.2-1.12.44-.36.24-.76.36-1.16.36-.24,0-.44-.04-.6-.12-.68-.24-1.24-.52-1.72-.84-.48-.28-.84-.52-1.04-.72-.08-.08-.16-.16-.2-.24-.08-.08-.12-.16-.12-.32,0-.24.08-.4.32-.48.16-.08.44-.08.76-.04.64.12,1.16.2,1.64.2.44.04.88.04,1.36.04.56,0,1.08,0,1.6-.04.48,0,1.04,0,1.6-.08.4,0,.72-.08.96-.16.2-.04.4-.12.6-.2.16-.08.32-.12.52-.2.16-.04.36-.08.64-.08.32,0,.64.04.96.04.32.08.6.12.92.2.24.08.48.2.68.32.16.16.24.36.24.56,0,.16-.04.32-.04.44-.08.16-.12.28-.16.44-.08.16-.16.36-.2.6-.08.24-.16.56-.24.92l-.48,2.84h.28c.88,0,1.32.32,1.32.92,0,.4-.16.64-.4.72-.32.12-.68.16-1.12.16l-6.32.08v3.64c0,.6.28.92.92.92.24,0,.68-.04,1.28-.08.56-.08,1.24-.2,1.96-.32.72-.16,1.48-.32,2.28-.52.8-.24,1.52-.48,2.24-.76.28-.16.52-.16.76-.08.16.04.28.16.28.36,0,.24-.2.52-.6.8-.52.32-1.16.68-1.96,1.08-.84.32-1.72.68-2.6,1-.92.28-1.8.52-2.64.72-.88.16-1.64.28-2.24.28-1,0-1.64-.24-1.96-.72-.32-.52-.48-1.2-.48-2v-3.2ZM313.4,588.65c-.8,0-1.56.12-2.24.36-.72.24-1.36.6-1.84,1.04-.56.48-.96,1.08-1.24,1.72-.32.72-.44,1.48-.44,2.36s.12,1.64.44,2.28c.28.72.68,1.28,1.24,1.72.48.48,1.12.84,1.84,1.08.68.28,1.44.4,2.24.4s1.56-.12,2.28-.4c.68-.24,1.28-.6,1.84-1.08.48-.44.88-1,1.2-1.72.28-.64.44-1.4.44-2.28s-.16-1.64-.44-2.36c-.32-.64-.72-1.24-1.2-1.72-.56-.44-1.16-.8-1.84-1.04-.72-.24-1.48-.36-2.28-.36ZM329.48,606.77c-.4,0-.88.04-1.44.04-.6.08-1.16.12-1.64.2-.32.08-.6.16-.8.28-.24.16-.4.28-.56.36-.16.12-.32.2-.48.24-.2.08-.44.04-.68-.12-.4-.16-.88-.4-1.36-.76-.52-.32-.92-.6-1.16-.92-.08-.08-.12-.16-.16-.28-.08-.08-.12-.16-.12-.32s.08-.32.28-.4c.16-.04.36-.04.64,0,.56.12,1.04.16,1.36.16.28.04.64.04,1.04.04.52,0,1.12,0,1.76-.04.64,0,1.2,0,1.76-.08.36,0,.64-.08.88-.16.2-.04.4-.12.56-.2.12-.08.28-.12.44-.2.16-.04.36-.08.6-.08s.56.04.88.04c.28.08.56.12.84.2.24.08.44.2.6.32.16.16.24.36.24.56,0,.24-.04.4-.08.56-.08.16-.12.36-.2.56-.08.24-.16.48-.2.72-.08.32-.12.64-.12,1.04l-.16,5.64c0,.36-.04.84-.12,1.48-.08.56-.2,1.16-.32,1.72-.16.56-.36,1.04-.56,1.44-.24.4-.48.6-.8.6-.4,0-.64-.36-.72-1.04-.16-.72-.2-1.92-.2-3.64v-7.96ZM332.48,596.01c0,.56-.04,1.24-.04,2.04-.04.84-.12,1.64-.2,2.36-.12.76-.28,1.4-.52,1.92-.24.56-.6.8-1,.8-.16,0-.32-.04-.44-.2-.16-.12-.24-.36-.32-.68-.08-.32-.16-.72-.2-1.28-.08-.52-.08-1.2-.08-2.04v-11.84c0-.56-.28-1.04-.76-1.44-.56-.36-1.32-.72-2.28-1.04-.24-.08-.44-.16-.56-.32-.16-.08-.24-.24-.24-.48,0-.2.08-.36.32-.52.2-.12.52-.2,1-.2.24,0,.72.04,1.48.08.72.08,1.44.2,2.16.36.56.16,1.04.32,1.44.48.4.2.6.44.6.68,0,.32-.08.64-.16,1-.16.4-.2.88-.2,1.48v8.84Z"/>
      <path class="st0" d="M351.04,607.77c-1.28,0-2.48-.2-3.56-.68-1.12-.4-2.08-1-2.88-1.8-.84-.76-1.48-1.68-1.92-2.76-.48-1.04-.72-2.16-.72-3.44,0-1.2.24-2.36.72-3.4.44-1.04,1.08-1.92,1.92-2.68.8-.72,1.76-1.28,2.88-1.72,1.08-.4,2.28-.6,3.56-.6,1.12,0,2.2.16,3.24.48,1,.36,1.92.84,2.72,1.4.76.64,1.4,1.36,1.96,2.2.48.88.84,1.8,1.04,2.84.24.04.52.04.8.04h2.24c.48,0,1,0,1.56-.04.52,0,1.08,0,1.64-.04.56,0,1.08,0,1.56-.04v-10.44c0-.56-.28-1.04-.76-1.44-.56-.36-1.32-.72-2.28-1.04-.24-.08-.44-.16-.56-.32-.16-.08-.24-.24-.24-.48,0-.2.08-.36.32-.52.2-.12.52-.2,1-.2.24,0,.72.04,1.48.08.72.08,1.44.2,2.16.36.56.16,1.04.32,1.44.48.4.2.6.44.6.68,0,.32-.08.64-.16,1-.16.4-.2.88-.2,1.48v26c0,1.04-.08,2-.16,3.04-.12.96-.28,1.84-.52,2.6-.24.72-.6,1.08-1.08,1.08-.72,0-1.04-1.68-1.04-5v-15.6c-.56.04-1.08.08-1.56.08-.52.04-1.08.08-1.68.16-.32.08-.52.16-.68.24l-.48.28c-.16.08-.32.16-.48.16-.2.04-.44,0-.76-.08-.32-.08-.64-.2-1-.36-.4-.12-.72-.28-1.04-.44-.04,1.24-.28,2.36-.76,3.36-.48,1.04-1.12,1.96-1.92,2.68-.84.76-1.8,1.36-2.88,1.76-1.12.44-2.28.64-3.52.64ZM351.04,592.77c-.8,0-1.56.16-2.28.4-.72.32-1.36.72-1.88,1.24-.56.56-1,1.2-1.28,1.96-.32.8-.48,1.72-.48,2.72s.16,1.96.48,2.72c.28.8.72,1.48,1.28,2,.52.56,1.16.96,1.88,1.2.72.32,1.48.44,2.28.44s1.56-.12,2.28-.44c.72-.24,1.36-.64,1.92-1.2.52-.52.96-1.2,1.28-2,.28-.76.44-1.68.44-2.72s-.16-1.92-.44-2.72c-.32-.76-.76-1.4-1.28-1.96-.56-.52-1.2-.92-1.92-1.24-.72-.24-1.48-.4-2.28-.4Z"/>
      <path class="st0" d="M411.16,605.49c-.84,0-1.8-.04-2.88-.04h-7.36c-1.32,0-2.64.04-3.92.04v7.36c0,.56-.04,1.28-.04,2.08-.04.8-.12,1.56-.2,2.32-.16.72-.32,1.36-.56,1.92-.28.52-.64.8-1.04.8-.16,0-.32-.08-.44-.2-.16-.16-.28-.36-.36-.68-.12-.32-.2-.76-.24-1.28-.08-.56-.08-1.24-.08-2.04v-10.24c-1.68.08-3.2.12-4.56.16-1.36.08-2.44.16-3.2.24-.48.08-.88.16-1.24.28-.4.16-.76.28-1.08.36-.36.16-.72.24-1.08.24-.4.08-.8,0-1.2-.16-.88-.28-1.6-.6-2.2-1-.64-.36-1.04-.64-1.28-.88-.12-.08-.2-.16-.28-.28-.08-.08-.12-.2-.12-.36,0-.28.12-.48.36-.6.24-.08.52-.08.92-.04.76.16,1.6.24,2.56.28.92.08,1.72.08,2.44.08h2c.96,0,2.04,0,3.32-.04,1.24,0,2.6,0,4.04-.04,1.4,0,2.76,0,4.08-.04,1.28,0,2.48-.04,3.56-.08,1.04,0,1.88-.04,2.44-.12.72-.04,1.32-.12,1.76-.24.4-.08.76-.2,1.04-.32l.68-.28c.2-.08.44-.12.76-.12.24,0,.52.04.88.04.32.04.68.08,1.08.08.32.08.68.12,1.08.16.32.08.64.12.92.2.48.16.8.32,1,.48.16.2.28.44.28.72,0,.4-.16.68-.44.92-.32.24-.8.36-1.4.32ZM404.6,587.97c-1.04,1.12-2.16,2.16-3.36,3.08-1.28.96-2.6,1.88-4,2.72.48.16,1.04.32,1.6.44.56.16,1.08.32,1.56.4.48.16.88.24,1.28.32.36.08.6.16.76.16.24.08.48.08.72,0,.24,0,.48-.04.76-.12.24,0,.48-.04.76-.08.24,0,.52.08.8.16,1.08.44,2.24,1.04,3.44,1.84.32.24.56.48.64.72.16.56,0,.96-.44,1.2-.16.08-.36.12-.68.08-.32,0-.8-.08-1.36-.28l-11.88-3.68c-2.28,1.2-4.6,2.24-6.96,3.08-2.4.88-4.64,1.6-6.8,2.08-.2.08-.4.08-.64.04-.24,0-.36-.16-.36-.48,0-.24.2-.4.6-.56,1.6-.48,3.24-1.12,4.92-1.92,1.68-.72,3.36-1.6,5.04-2.6,1.64-.96,3.28-2,4.88-3.16,1.56-1.12,3.04-2.36,4.44-3.68-.72,0-1.44.04-2.24.04-.84.04-1.64.08-2.4.08-.8.04-1.56.08-2.24.08-.72.08-1.28.12-1.68.12-1.68.16-2.84.4-3.48.72-.4.16-.64.24-.76.24-.32,0-.6-.04-.84-.16-.68-.2-1.32-.48-1.92-.8-.64-.28-1.2-.6-1.76-.96-.4-.24-.56-.44-.56-.68,0-.4.28-.52.92-.44.64.16,1.4.24,2.28.28.84.08,1.76.12,2.8.12.64,0,1.44,0,2.36-.04.88,0,1.88,0,2.96-.08,1.04,0,2.2-.04,3.4-.12,1.16-.04,2.36-.12,3.56-.2.2,0,.4-.04.6-.08.16,0,.28-.04.44-.12.4-.16.72-.24,1.04-.24.68,0,1.48.12,2.44.36.24.08.44.2.52.32.04.16.08.28.08.4s-.08.28-.24.48c-.2.24-.52.56-1,.92Z"/>
      <path class="st0" d="M430.16,591.81c-.32,1.2-.76,2.44-1.32,3.64-.56,1.28-1.24,2.52-2,3.76.32.36.68.72,1.08,1.12.36.4.72.8,1.08,1.12.32.36.64.68.96.92.24.28.44.48.6.56.2.16.44.32.68.4l.76.28c.24.08.52.2.76.32.24.16.44.32.68.56.4.52.8,1.08,1.16,1.68.32.64.68,1.28,1,2,.16.36.24.72.16,1.08-.08.24-.16.44-.32.6-.2.16-.44.24-.72.2-.16,0-.4-.12-.68-.28-.32-.16-.68-.48-1.12-1.04l-7.12-7.92c-1.28,1.88-2.72,3.64-4.24,5.28-1.6,1.68-3.16,3.12-4.76,4.32-.24.16-.44.24-.68.24-.24.04-.44,0-.56-.16-.12-.08-.16-.24-.16-.44,0-.16.12-.4.4-.64,1.04-1,2.12-2.2,3.24-3.6,1.08-1.36,2.12-2.8,3.08-4.32.96-1.52,1.8-3.04,2.6-4.6.72-1.52,1.28-2.92,1.68-4.24.08-.32.12-.56.12-.8-.08-.2-.16-.36-.28-.52-.24-.16-.52-.4-.92-.64l-1.44-.64c-.32-.12-.52-.28-.6-.44s-.12-.32-.04-.48c.04-.12.16-.24.36-.4.16-.12.48-.16.88-.12.24.04.6.08,1.04.16.4.08.84.2,1.32.28.44.16.92.28,1.4.44s.92.32,1.32.48c.4.16.64.4.72.68.04.32,0,.68-.12,1.16ZM439.36,595.81c-.32.08-.52.16-.68.24l-.48.28c-.16.08-.32.16-.48.16-.2.04-.44,0-.76-.08-.4-.08-.92-.28-1.48-.56-.6-.24-1.04-.48-1.32-.72-.4-.24-.56-.52-.56-.76,0-.32.2-.48.64-.48h1.12c.32.04.72.04,1.16.04.84,0,1.88,0,3.12-.04,1.2,0,2.32,0,3.36-.08v-6.72c0-.56-.28-1.04-.76-1.44-.56-.36-1.32-.72-2.28-1.04-.24-.08-.44-.16-.56-.32-.16-.08-.24-.24-.24-.48,0-.2.08-.36.32-.52.2-.12.52-.2,1-.2.24,0,.72.04,1.48.08.72.08,1.44.2,2.16.36.56.16,1.04.32,1.44.48.4.2.6.44.6.68,0,.32-.08.64-.16,1-.16.4-.2.88-.2,1.48v26c0,1.04-.08,2-.16,3.04-.12.96-.28,1.84-.52,2.6-.24.72-.6,1.08-1.08,1.08-.72,0-1.04-1.68-1.04-5v-12.04c-.64.04-1.2.08-1.76.08-.56.04-1.2.08-1.88.16-.32.08-.52.16-.68.24l-.48.28c-.16.08-.32.16-.48.16-.2.04-.44,0-.76-.08-.4-.08-.92-.28-1.48-.56-.6-.24-1.04-.48-1.32-.72-.4-.24-.56-.52-.56-.76,0-.32.2-.48.64-.48h1.12c.32.04.72.04,1.16.04.84,0,1.88,0,3.12-.04,1.2,0,2.32,0,3.36-.08v-5.52c-.64.04-1.2.08-1.76.08-.56.04-1.2.08-1.88.16Z"/>
      <path class="st0" d="M467.76,591.81c-.32,1.12-.68,2.2-1.16,3.28-.48,1.12-1.08,2.24-1.72,3.36.32.36.68.76,1.12,1.16.4.44.8.84,1.2,1.24.4.4.76.76,1.08,1.04.32.32.52.56.68.64.2.16.44.32.68.4l.76.28c.24.08.52.2.76.32.24.16.44.32.68.56.4.52.8,1.08,1.16,1.68.32.64.68,1.28,1,2,.16.36.24.72.16,1.08-.08.24-.16.44-.32.6-.2.16-.44.24-.72.2-.16,0-.4-.12-.68-.28-.32-.16-.68-.48-1.12-1.04l-7.44-8.28c-1.32,2.04-2.8,3.96-4.44,5.72-1.68,1.84-3.36,3.36-5.04,4.64-.24.16-.44.24-.68.24-.24.04-.44,0-.56-.16-.12-.08-.16-.24-.16-.44,0-.16.12-.4.4-.64,1.04-1,2.12-2.2,3.24-3.6,1.08-1.36,2.12-2.8,3.08-4.32.96-1.52,1.8-3.04,2.6-4.6.72-1.52,1.28-2.92,1.68-4.24.08-.32.12-.56.12-.8-.08-.2-.16-.36-.28-.52-.24-.16-.52-.4-.92-.64l-1.44-.64c-.32-.12-.52-.28-.6-.44s-.12-.32-.04-.48c.04-.12.16-.24.36-.4.16-.12.48-.16.88-.12.24.04.6.08,1.04.16.4.08.84.2,1.32.28.44.16.92.28,1.4.44s.92.32,1.32.48c.4.16.64.4.72.68.04.32,0,.68-.12,1.16ZM476.96,599.13c-.32.08-.52.16-.68.24l-.48.28c-.16.08-.32.16-.48.16-.2.04-.44,0-.76-.08-.4-.08-.92-.28-1.48-.56-.6-.24-1.04-.48-1.32-.72-.4-.24-.56-.52-.56-.76,0-.32.2-.48.64-.48h1.12c.32.04.72.04,1.16.04.84,0,1.88,0,3.12-.04,1.2,0,2.32,0,3.36-.08v-10.04c0-.56-.28-1.04-.76-1.44-.56-.36-1.32-.72-2.28-1.04-.24-.08-.44-.16-.56-.32-.16-.08-.24-.24-.24-.48,0-.2.08-.36.32-.52.2-.12.52-.2,1-.2.24,0,.72.04,1.48.08.72.08,1.44.2,2.16.36.56.16,1.04.32,1.44.48.4.2.6.44.6.68,0,.32-.08.64-.16,1-.16.4-.2.88-.2,1.48v26c0,1.04-.08,2-.16,3.04-.12.96-.28,1.84-.52,2.6-.24.72-.6,1.08-1.08,1.08-.72,0-1.04-1.68-1.04-5v-16c-.64.04-1.2.08-1.76.08-.56.04-1.2.08-1.88.16Z"/>
      <path class="st0" d="M515.88,587.85c.32,0,.56-.08.8-.16.16-.04.36-.12.52-.2.16-.08.32-.12.48-.2.16-.04.32-.08.56-.08.32,0,.68.04,1.08.04.32.04.68.08,1,.16.28.08.52.2.76.32.16.16.28.36.28.6,0,.32-.16.64-.44.92-.32.32-.52.6-.64.88-.96,1.84-2.04,3.56-3.24,5.12-1.24,1.6-2.6,3.04-4.08,4.36-1.52,1.36-3.12,2.56-4.84,3.64-1.76,1.12-3.56,2.16-5.44,3.08-.24.12-.44.16-.6.12-.24,0-.4-.04-.48-.2-.12-.12-.16-.28-.08-.52.04-.16.2-.32.44-.48,3.32-1.96,6.28-4.24,8.84-6.84,2.56-2.56,4.52-5.56,5.96-8.92l-3.92.12c-1.32.08-2.4.12-3.2.2-.4.08-.68.16-.92.28-.28.16-.52.28-.76.36-.24.16-.48.24-.72.28-.28.08-.6.04-.96-.12-.36-.08-.72-.24-1.04-.4-.4-.16-.72-.32-1-.48-.32-.16-.56-.28-.76-.44-.24-.12-.44-.24-.52-.32s-.16-.16-.2-.24c-.08-.08-.12-.16-.12-.32,0-.24.08-.4.32-.48.16-.08.44-.08.76-.04.64.12,1.28.2,1.96.2.64.04,1.24.04,1.84.04.44,0,1,0,1.68-.04.64,0,1.36,0,2.16-.04.72,0,1.52,0,2.32-.08.76,0,1.48-.04,2.2-.12ZM511.88,609.96c-.04-.28-.08-.56-.12-.8-.08-.2-.16-.4-.28-.64-.16-.16-.4-.36-.64-.56-.32-.16-.68-.32-1.16-.48-.24-.08-.44-.16-.56-.32-.16-.08-.24-.24-.24-.48,0-.2.08-.36.32-.52.2-.12.52-.2,1-.2.24,0,.64.04,1.24.08.56.08,1.2.2,1.92.36.12.08.24.08.36.08.08.04.16.08.28.12l10-.4c.4,0,.76-.08,1.04-.16.24-.08.44-.16.64-.28.16-.08.36-.16.56-.24.16-.04.36-.08.64-.08.32,0,.64.04,1.04.04.32.04.68.08,1,.16.28.08.52.2.76.32.16.16.28.36.28.6,0,.2-.04.36-.08.52l-.2.56c-.08.2-.12.44-.16.68-.08.32-.16.64-.2,1.04l-.84,7.16c.88.16,1.32.52,1.32,1.12,0,.4-.16.64-.48.8-.36.12-.76.2-1.2.2h-13.16c-.16.6-.32,1-.56,1.24-.28.2-.52.32-.72.32-.4,0-.68-.24-.84-.68-.16-.48-.32-1.28-.4-2.4l-.56-7.16ZM515,608.29l.16,7.96v.56l11.2-.16v-8.6l-11.36.24ZM529.55,593.77h1.36c.32,0,.64-.04.88-.16.24-.08.44-.2.68-.36.16-.12.36-.24.56-.36.16-.08.4-.16.64-.16.4,0,.84.04,1.32.04.4.08.84.16,1.32.28.4.12.68.28.88.48.16.24.24.52.24.8,0,.76-.52,1.12-1.52,1.12h-6.36v1.96c0,.56-.04,1.24-.04,2.04-.04.84-.12,1.64-.2,2.36-.12.76-.28,1.4-.52,1.92-.24.56-.6.8-1,.8-.16,0-.32-.04-.44-.2-.16-.12-.24-.36-.32-.68-.08-.32-.16-.72-.2-1.28-.08-.52-.08-1.2-.08-2.04v-13.24c0-.56-.28-1.04-.76-1.44-.56-.36-1.32-.72-2.28-1.04-.24-.08-.44-.16-.56-.32-.16-.08-.24-.24-.24-.48,0-.2.08-.36.32-.52.2-.12.52-.2,1-.2.24,0,.72.04,1.48.08.72.08,1.44.2,2.16.36.56.16,1.04.32,1.44.48.4.2.6.44.6.68,0,.32-.08.64-.16,1-.16.4-.2.88-.2,1.48v6.6Z"/>
      <path class="st0" d="M553.36,591.81c-.56,2.16-1.52,4.36-2.84,6.6.32.36.68.76,1.12,1.16.4.44.8.84,1.2,1.2.36.4.72.76,1.04,1.04.32.32.52.56.68.64.2.16.44.32.68.4l.76.28c.24.08.52.2.76.32.24.16.44.32.68.56.4.52.8,1.08,1.16,1.68.32.64.68,1.28,1,2,.16.36.24.72.16,1.08-.08.24-.16.44-.32.6-.2.16-.44.24-.72.2-.16,0-.4-.12-.68-.28-.32-.16-.68-.48-1.12-1.04l-7.4-8.24c-1.36,2.04-2.84,3.96-4.48,5.76-1.68,1.84-3.36,3.36-5.04,4.64-.24.16-.44.24-.68.24-.24.04-.44,0-.56-.16-.12-.08-.16-.24-.16-.44,0-.16.12-.4.4-.64,1.04-1,2.12-2.2,3.24-3.6,1.08-1.36,2.12-2.8,3.08-4.32.96-1.52,1.8-3.04,2.6-4.6.72-1.52,1.28-2.92,1.68-4.24.08-.32.12-.56.12-.8-.08-.2-.16-.36-.28-.52-.24-.16-.52-.4-.92-.64l-1.44-.64c-.32-.12-.52-.28-.6-.44s-.12-.32-.04-.48c.04-.12.16-.24.36-.4.16-.12.48-.16.88-.12.24.04.6.08,1.04.16.4.08.84.2,1.32.28.44.16.92.28,1.4.44.48.16.92.32,1.32.48.4.16.64.4.72.68.04.32,0,.68-.12,1.16ZM567.15,598.17h1.36c.32,0,.64-.04.88-.16.24-.08.44-.2.68-.36.16-.12.36-.24.56-.36.16-.08.4-.16.64-.16.4,0,.84.04,1.32.04.4.08.84.16,1.32.28.4.12.68.28.88.48.16.24.24.52.24.8,0,.76-.52,1.12-1.52,1.12h-6.36v13.32c0,1.04-.08,2-.16,3.04-.12.96-.28,1.84-.52,2.6-.24.72-.6,1.08-1.08,1.08-.72,0-1.04-1.68-1.04-5v-27.8c0-.56-.28-1.04-.76-1.44-.56-.36-1.32-.72-2.28-1.04-.24-.08-.44-.16-.56-.32-.16-.08-.24-.24-.24-.48,0-.2.08-.36.32-.52.2-.12.52-.2,1-.2.24,0,.72.04,1.48.08.72.08,1.44.2,2.16.36.56.16,1.04.32,1.44.48.4.2.6.44.6.68,0,.32-.08.64-.16,1-.16.4-.2.88-.2,1.48v11Z"/>
      <path class="st0" d="M592.96,589.69c.36,0,.68-.08.96-.2.24-.08.44-.2.68-.32.16-.08.36-.2.56-.28.16-.08.4-.12.68-.12.44,0,.88.04,1.36.04.44.08.92.16,1.4.28.8.24,1.2.72,1.2,1.36,0,.76-.56,1.12-1.6,1.12h-3.88c-1.36,0-2.64.04-3.84.04-1.28.08-2.44.12-3.48.12-1.12.08-2.04.12-2.8.2-.4.04-.72.12-.96.24-.32.16-.6.32-.84.4-.28.16-.56.24-.8.28-.32.08-.64.04-1.04-.12-.72-.24-1.44-.56-2.08-.96-.72-.4-1.16-.68-1.36-.88-.08-.08-.16-.16-.2-.24-.08-.08-.12-.16-.12-.32,0-.24.08-.44.32-.52.2-.08.48-.08.8-.04.68.12,1.36.2,2.08.2.64.08,1.28.08,1.92.08h2.36c.64.04,1.36.04,2.16,0,.72,0,1.6-.04,2.64-.12,1,0,2.28-.08,3.88-.24ZM581.24,598.85c0-1.68.68-3.04,2.04-4.12,1.36-1.04,3.2-1.56,5.52-1.56,1.12,0,2.16.16,3.12.4.92.32,1.72.68,2.4,1.16.64.52,1.12,1.12,1.48,1.8.32.72.52,1.52.52,2.32,0,1.68-.68,3.04-2.04,4.04-1.36,1.04-3.2,1.56-5.48,1.56s-4.16-.52-5.52-1.56c-1.36-1-2.04-2.36-2.04-4.04ZM593.32,586.57c0,.4-.2.68-.52.84-.36.24-.76.36-1.24.4-.96.16-1.88.24-2.76.24-.92.08-1.92.08-3.04.04-.32,0-.6-.04-.88-.2-.32-.12-.6-.28-.84-.52-.32-.2-.56-.44-.8-.68s-.44-.48-.6-.72c-.12-.12-.16-.28-.16-.48,0-.16.08-.32.32-.4.16-.08.48-.04.88.08.28.08.6.16,1,.2.36.08.76.16,1.16.2.32.08.68.08,1.16.08.4.04.88.04,1.4.04.48,0,1,0,1.56-.04.52,0,1.04,0,1.52-.04.6,0,1.08.08,1.4.16.28.16.44.4.44.8ZM604.75,614.12c0,.56-.04,1.16-.04,1.88-.04.68-.12,1.32-.2,1.96-.12.56-.28,1.08-.52,1.48-.24.4-.6.6-1,.6-.24,0-.4-.12-.52-.32-.16-.24-.32-.64-.4-1.2h-12c-.16.52-.32.96-.52,1.36-.24.36-.56.56-.96.56-.16,0-.32-.08-.44-.2-.16-.16-.24-.36-.32-.68s-.16-.76-.2-1.28c-.08-.56-.08-1.24-.08-2.04v-5.92c0-.56-.24-1.04-.68-1.44-.48-.36-1.2-.72-2.16-1.04-.24-.08-.44-.16-.56-.32-.16-.08-.24-.24-.24-.48,0-.2.08-.36.32-.52.2-.12.52-.2,1-.2.24,0,.68.04,1.36.08.64.08,1.36.2,2.08.36.56.16.96.32,1.28.52.24.24.4.52.4.76v2.48h11.6v-1.2c0-.56-.24-1.04-.68-1.44-.48-.36-1.2-.72-2.16-1.04-.24-.08-.44-.16-.56-.32-.16-.08-.24-.24-.24-.48,0-.2.08-.36.32-.52.2-.12.52-.2,1-.2.24,0,.68.04,1.36.08.64.08,1.36.2,2.08.36.56.16.96.32,1.28.52.24.24.4.52.4.76v7.08ZM584.12,598.73c0,1.08.4,1.92,1.28,2.56.84.68,1.96,1,3.4,1,1.36,0,2.48-.32,3.36-1,.8-.64,1.24-1.48,1.24-2.56s-.44-1.96-1.24-2.6c-.88-.6-2-.92-3.36-.92-1.44,0-2.56.32-3.4.92-.88.64-1.28,1.52-1.28,2.6ZM590.36,612.48v3c0,.32-.04.68-.04,1.08h11.64v-4.08h-11.6ZM604.75,595.37h1.36c.32,0,.64-.04.88-.16.24-.08.44-.2.68-.36.16-.12.36-.24.56-.36.16-.08.4-.16.64-.16.4,0,.84.04,1.32.04.4.08.84.16,1.32.28.4.12.68.28.88.48.16.24.24.52.24.8,0,.76-.52,1.12-1.52,1.12h-6.36v.16c0,.56-.04,1.24-.04,2.04-.04.84-.12,1.64-.2,2.36-.12.76-.28,1.4-.52,1.92-.24.56-.6.8-1,.8-.16,0-.32-.04-.44-.2-.16-.12-.24-.36-.32-.68-.08-.32-.16-.72-.2-1.28-.08-.52-.08-1.2-.08-2.04v-13.04c0-.56-.28-1.04-.76-1.44-.56-.36-1.32-.72-2.28-1.04-.24-.08-.44-.16-.56-.32-.16-.08-.24-.24-.24-.48,0-.2.08-.36.32-.52.2-.12.52-.2,1-.2.24,0,.72.04,1.48.08.72.08,1.44.2,2.16.36.56.16,1.04.32,1.44.48.4.2.6.44.6.68,0,.32-.08.64-.16,1-.16.4-.2.88-.2,1.48v8.2Z"/>
      <path class="st0" d="M619.04,593.61c0-.56-.24-1.04-.68-1.44-.48-.32-1.2-.68-2.16-1-.24-.08-.44-.16-.56-.32-.16-.08-.24-.24-.24-.48,0-.2.08-.36.32-.52.2-.12.52-.2,1-.2.24,0,.72.04,1.52.08.72.08,1.48.16,2.2.32.72.16,1.2.36,1.48.52.24.2.36.44.36.76,0,.24-.04.52-.08.8-.08.32-.08.72-.08,1.16v11.96c0,.72.28,1.04.92,1.04,1.6,0,3.24-.08,4.92-.32,1.6-.16,3.24-.44,4.84-.8,1.56-.32,3.12-.72,4.64-1.16,1.52-.4,2.96-.8,4.36-1.28v-15.64c0-.56-.28-1.04-.76-1.44-.56-.36-1.32-.72-2.28-1.04-.24-.08-.44-.16-.56-.32-.16-.08-.24-.24-.24-.48,0-.2.08-.36.32-.52.2-.12.52-.2,1-.2.24,0,.72.04,1.48.08.72.08,1.44.2,2.16.36.56.16,1.04.32,1.44.48.4.2.6.44.6.68,0,.32-.08.64-.16,1-.16.4-.2.88-.2,1.48v26c0,1.04-.08,2-.16,3.04-.12.96-.28,1.84-.52,2.6-.24.72-.6,1.08-1.08,1.08-.72,0-1.04-1.68-1.04-5v-10.6c-1.44.56-3.04,1.12-4.8,1.64-1.76.56-3.52,1.08-5.28,1.48-1.76.48-3.44.84-5.04,1.08-1.64.28-3.04.4-4.16.4-1.28,0-2.2-.32-2.68-1-.56-.64-.8-1.6-.8-2.88v-11.4Z"/>
      <path class="st0" d="M655.84,593.81c0-.56-.24-1.04-.68-1.44-.48-.32-1.2-.68-2.16-1-.24-.08-.44-.16-.56-.32-.16-.08-.24-.24-.24-.48,0-.2.08-.36.32-.52.2-.12.52-.2,1-.2.24,0,.72.04,1.52.08.72.08,1.48.16,2.2.32.12.08.24.08.36.08.08.04.2.08.32.08l7.52-.16c.32,0,.64-.04.88-.2.24-.08.44-.2.68-.36.16-.08.36-.2.56-.32.16-.08.4-.16.64-.16.4,0,.92.04,1.52.04.56.08,1.04.16,1.52.28.4.12.68.28.88.48.16.24.24.52.24.8,0,.76-.52,1.12-1.52,1.12l-11.92.16v13.76c0,.4.08.64.24.72.12.16.36.2.68.2,2.8,0,5.72-.28,8.68-.84,2.96-.56,5.84-1.28,8.64-2.16v-16.68c0-.56-.28-1.04-.76-1.44-.56-.36-1.32-.72-2.28-1.04-.24-.08-.44-.16-.56-.32-.16-.08-.24-.24-.24-.48,0-.2.08-.36.32-.52.2-.12.52-.2,1-.2.24,0,.72.04,1.48.08.72.08,1.44.2,2.16.36.56.16,1.04.32,1.44.48.4.2.6.44.6.68,0,.32-.08.64-.16,1-.16.4-.2.88-.2,1.48v11h1.36c.32,0,.64-.04.88-.16.24-.08.44-.2.68-.36.16-.12.36-.24.56-.36.16-.08.4-.16.64-.16.4,0,.84.04,1.32.04.4.08.84.16,1.32.28.4.12.68.28.88.48.16.24.24.52.24.8,0,.76-.52,1.12-1.52,1.12h-6.36v13.32c0,1.04-.08,2-.16,3.04-.12.96-.28,1.84-.52,2.6-.24.72-.6,1.08-1.08,1.08-.72,0-1.04-1.68-1.04-5v-9.48c-1.44.56-3,1.04-4.64,1.52-1.68.52-3.32.96-4.92,1.32-1.64.4-3.16.68-4.6.88-1.48.24-2.72.36-3.68.36-1.28,0-2.2-.32-2.68-1-.56-.64-.8-1.6-.8-2.88v-11.8Z"/>
      <path class="st0" d="M692.8,616.32c-.64,0-1.16-.2-1.56-.6-.44-.4-.64-.96-.64-1.64,0-.64.2-1.2.64-1.64.4-.4.92-.6,1.56-.6.6,0,1.12.2,1.56.6.4.44.64,1,.64,1.64,0,.68-.24,1.24-.64,1.64-.44.4-.96.6-1.56.6Z"/>
    </g>
    <g>
      <path class="st0" d="M258.06,899.65l1.25-.1c.87-.08,1.2-.25,1.2-.4v-14.75h-1.07c-2.3.15-3.87,2.15-4.82,3.97l-.17.3h-.17l.92-4.5h13.22l.67,4.5h-.15l-.15-.3c-1.1-2.45-2.57-3.87-4.8-3.97h-1.1v14.82c0,.17.15.25,1.45.35l.98.08.07.15h-7.4l.07-.15Z"/>
      <path class="st0" d="M277.61,899.65l.42-.02c.75-.05,1.02-.08,1.02-.38v-13.97c0-.67-.17-.88-1-1.1l-.57-.15.02-.1,3.65-.95v8.02l.05.05c.98-.83,2.4-2.15,4.2-2.15.8,0,1.45.25,1.92.72.58.58.8,1.42.8,2.47v7.17c0,.15,0,.25,1.25.35l.32.02.08.15h-5.35l.07-.15.45-.02c.87-.05,1.05-.18,1.05-.38v-6.8c0-1.45-.72-2.1-2.2-2.1-1.15,0-2.02.45-2.65,1.03v7.92c0,.2.15.25,1.27.33l.35.02.08.15h-5.32l.08-.15Z"/>
      <path class="st0" d="M303.69,898.2v-.03c-.87.92-1.92,1.85-3.17,1.85-1.45,0-2.57-1.07-2.57-2.37,0-1.58,1.12-2.88,5.9-3.95l.03-.78c.07-2.47-.95-3.42-2.47-3.42-.9,0-1.87.5-1.87.75,0,.17.65.7.65,1.38,0,.55-.48,1.07-1.2,1.07s-1.2-.45-1.2-1.02c0-1.33,3.05-2.8,5.05-2.8,2.37,0,3.37.8,3.2,3.95l-.25,4.77c-.05.87.27,1.32.87,1.32.4,0,.73-.33,1.05-.62l.12.08c-.42.58-1.27,1.67-2.37,1.67s-1.62-.65-1.75-1.85ZM303.69,897.9l.15-3.95c-3.2.7-3.8,1.77-3.8,3,0,1.1.82,1.88,1.62,1.88.7,0,1.3-.18,2.02-.92Z"/>
      <path class="st0" d="M315.49,899.65l.45-.02c.77-.05,1.05-.08,1.05-.38v-7.12c0-1.55-.17-1.8-1.02-1.97l-.58-.12.02-.1,3.7-.97-.07,2.07.07.03c.98-.83,2.42-2.15,4.2-2.15.8,0,1.47.22,1.95.72.58.55.77,1.42.77,2.5v7.15c0,.15,0,.25,1.27.35l.32.02.08.15h-5.32l.07-.15.45-.02c.87-.05,1-.18,1-.38v-6.77c0-1.47-.7-2.12-2.2-2.12-1.12,0-2,.45-2.62,1.03v7.92c0,.2.15.25,1.22.33l.38.02.05.15h-5.32l.08-.15Z"/>
      <path class="st0" d="M335.39,899.65l.42-.02c.75-.05,1.02-.08,1.02-.38v-13.97c0-.67-.17-.88-1-1.1l-.57-.15.02-.1,3.65-.95v11.95l2.42-2.37c1.02-.98,1.82-1.95,1.82-2.42,0-.4-.38-.62-1.35-.7l-.33-.02-.05-.15h4.8l-.08.15-.5.05c-1.15.1-1.75.88-3.75,2.87l-.5.48,3.05,5.02c.9,1.45,1.1,1.7,2.12,1.8l.27.02.07.15h-3.87l-.12-.3-3.05-5.2-.97.92v4.07c0,.2.15.25,1.27.33l.35.02.08.15h-5.32l.08-.15Z"/>
      <path class="st0" d="M367.29,904.92c0-.7.6-1.22,1.25-1.22.9,0,1.3.55,1.5,1.17.6-.12,1-1,1.42-2.27l.85-2.6h-.05l-3.95-9.02c-.57-1.3-.67-1.5-1.45-1.55l-.48-.02-.07-.15h5.47l-.08.15-.42.02c-.95.05-1.05.38-.65,1.3l2.72,6.42,1.77-4.95c.82-2.32.65-2.62-1.02-2.77l-.35-.02-.07-.15h4.3l-.08.15-.37.02c-1.15.08-1.25.42-2.2,3.07l-2.7,7.32-.97,3.02c-.67,2.17-1.47,3.35-2.87,3.35-.8,0-1.5-.55-1.5-1.28Z"/>
      <path class="st0" d="M385.14,894.55c0-3.15,2.42-5.67,5.75-5.67s5.75,2.42,5.75,5.57-2.42,5.67-5.75,5.67-5.75-2.42-5.75-5.57ZM394.11,894.68c0-1.95-.42-3.82-1.35-4.75-.48-.45-1.05-.85-1.92-.85-2.2,0-3.17,2.7-3.17,5.15,0,2.05.35,3.87,1.3,4.82.55.55,1.15.88,1.95.88,2.05,0,3.2-2.6,3.2-5.25Z"/>
      <path class="st0" d="M413.06,898h-.02c-.95.9-2.35,2.12-4.12,2.12-.8,0-1.45-.22-1.95-.72-.55-.55-.75-1.42-.75-2.5v-7.17c0-.15,0-.22-1.27-.32l-.35-.03-.08-.15h3.82l-.02,7.35c0,1.47.72,2.1,2.22,2.1,1.1,0,1.87-.4,2.47-.95v-7.1c0-.97-.23-1.15-1.25-1.22l-.35-.03-.08-.15h3.8v8.82c0,.58.1.65.38.72l1.22.25-.02.12-3.65,1.05v-2.2Z"/>
      <path class="st0" d="M436.69,899.65l.43-.02c.75-.05,1.05-.05,1.05-.35v-9.05l-1.95-.02.47-.95h1.45l.05-.72c.32-3.65,2.82-5.27,4.92-5.27,1.25,0,1.75.57,1.75,1.2s-.55,1.15-1.25,1.15-1.4-.73-1.57-1.62l-.05-.15-.32-.05c-1.2.53-1.4,1.88-1.4,4.25v1.22h2.97l-.45.97h-2.52v9.07c0,.2.18.3,1.27.33l.82.02.08.15h-5.82l.07-.15Z"/>
      <path class="st0" d="M450.86,894.55c0-3.15,2.42-5.67,5.75-5.67s5.75,2.42,5.75,5.57-2.42,5.67-5.75,5.67-5.75-2.42-5.75-5.57ZM459.84,894.68c0-1.95-.42-3.82-1.35-4.75-.48-.45-1.05-.85-1.92-.85-2.2,0-3.17,2.7-3.17,5.15,0,2.05.35,3.87,1.3,4.82.55.55,1.15.88,1.95.88,2.05,0,3.2-2.6,3.2-5.25Z"/>
      <path class="st0" d="M470.74,899.65l.45-.02c.77-.05,1.05-.08,1.05-.38v-7.12c0-1.55-.17-1.8-1.02-1.97l-.58-.12.02-.1,3.7-.97-.07,3.95h.05c.67-2.52,1.72-4,3.35-4,.88,0,1.62.65,1.62,1.38s-.52,1.4-1.37,1.4c-.7,0-1.45-.47-1.5-1.58-.95.2-1.45,1.35-2.1,3.65v5.55c0,.2.17.3,1.27.33l.77.02.08.15h-5.8l.08-.15Z"/>
      <path class="st0" d="M500.81,897.53l.12-7.25-1.97-.03.1-.28,1.22-.92,2.72-2.15.08.03-.03,2.27,3.77.03-.45.95h-3.32l-.17,7.22c0,.88.53,1.5,1.72,1.5.92,0,1.6-.32,2.12-.8l.12.1c-1,1-2.22,1.92-3.5,1.92-1.67,0-2.57-.82-2.55-2.6Z"/>
      <path class="st0" d="M520.86,898.2v-.03c-.88.92-1.92,1.85-3.17,1.85-1.45,0-2.57-1.07-2.57-2.37,0-1.58,1.12-2.88,5.9-3.95l.03-.78c.08-2.47-.95-3.42-2.47-3.42-.9,0-1.87.5-1.87.75,0,.17.65.7.65,1.38,0,.55-.47,1.07-1.2,1.07s-1.2-.45-1.2-1.02c0-1.33,3.05-2.8,5.05-2.8,2.37,0,3.37.8,3.2,3.95l-.25,4.77c-.05.87.28,1.32.88,1.32.4,0,.72-.33,1.05-.62l.12.08c-.42.58-1.27,1.67-2.38,1.67s-1.62-.65-1.75-1.85ZM520.86,897.9l.15-3.95c-3.2.7-3.8,1.77-3.8,3,0,1.1.83,1.88,1.62,1.88.7,0,1.3-.18,2.02-.92Z"/>
      <path class="st0" d="M532.46,899.65l.42-.02c.75-.05,1.02-.08,1.02-.38v-13.97c0-.67-.17-.88-1-1.1l-.57-.15.02-.1,3.65-.95v11.95l2.42-2.37c1.03-.98,1.83-1.95,1.83-2.42,0-.4-.38-.62-1.35-.7l-.33-.02-.05-.15h4.8l-.08.15-.5.05c-1.15.1-1.75.88-3.75,2.87l-.5.48,3.05,5.02c.9,1.45,1.1,1.7,2.12,1.8l.28.02.07.15h-3.87l-.12-.3-3.05-5.2-.97.92v4.07c0,.2.15.25,1.27.33l.35.02.08.15h-5.32l.08-.15Z"/>
      <path class="st0" d="M551.74,899.65l.45-.02c.77-.05,1.05-.08,1.05-.38v-7.15c0-1.52-.17-1.77-1.02-1.95l-.58-.12.02-.1,3.67-.97v10.35c0,.2.15.25,1.25.33l.35.02.08.15h-5.35l.08-.15ZM552.64,885.45c0-.58.42-1.42,1.42-1.42s1.42.85,1.42,1.42-.45,1.38-1.42,1.38-1.42-.83-1.42-1.38Z"/>
      <path class="st0" d="M565.04,899.65l.45-.02c.77-.05,1.05-.08,1.05-.38v-7.12c0-1.55-.17-1.8-1.02-1.97l-.58-.12.02-.1,3.7-.97-.07,2.07.07.03c.98-.83,2.42-2.15,4.2-2.15.8,0,1.47.22,1.95.72.58.55.78,1.42.78,2.5v7.15c0,.15,0,.25,1.27.35l.33.02.08.15h-5.32l.08-.15.45-.02c.87-.05,1-.18,1-.38v-6.77c0-1.47-.7-2.12-2.2-2.12-1.12,0-2,.45-2.62,1.03v7.92c0,.2.15.25,1.22.33l.38.02.05.15h-5.32l.08-.15Z"/>
      <path class="st0" d="M584.94,903.35c0-1.42,1.72-2.55,3.05-3.02v-.05c-1.67-.17-2.8-.92-2.8-1.92,0-1.32,1.55-2.25,2.82-2.47v-.08c-1.15-.42-2.25-1.58-2.25-3.12,0-2.15,1.82-3.75,4.2-3.75,1.2,0,2.12.43,2.9,1l3.02-.6-.25,1.27-2.37-.35-.03.08c.53.47.95,1.3.95,2.15,0,2.05-1.85,3.67-4.3,3.67-.53,0-1.23-.12-1.5-.17-.88.15-1.47.58-1.47,1.27,0,.8.72,1.03,2.07,1.03.7,0,1.88-.08,2.77-.08,2.4,0,3.67,1.02,3.67,2.85,0,2.8-2.55,4.92-6.45,4.92-2.55,0-4.05-.97-4.05-2.62ZM594.13,902.37c0-1.25-.92-2.07-3.25-2.15-.67-.03-1.87.05-2.6.15-.85.33-1.65,1.33-1.65,2.35,0,1.65,1.6,2.77,3.72,2.77s3.77-1.45,3.77-3.12ZM592.11,892.78c0-2.05-.45-3.65-2.17-3.65-1.22,0-2,1.3-2,3.3,0,2.17.75,3.52,2.02,3.52s2.15-1.27,2.15-3.17Z"/>
      <path class="st0" d="M617.41,897.53l.12-7.25-1.97-.03.1-.28,1.22-.92,2.72-2.15.07.03-.02,2.27,3.77.03-.45.95h-3.32l-.17,7.22c0,.88.52,1.5,1.72,1.5.92,0,1.6-.32,2.12-.8l.12.1c-1,1-2.22,1.92-3.5,1.92-1.67,0-2.57-.82-2.55-2.6Z"/>
      <path class="st0" d="M631.24,899.65l.42-.02c.75-.05,1.02-.08,1.02-.38v-13.97c0-.67-.17-.88-1-1.1l-.57-.15.02-.1,3.65-.95v8.02l.05.05c.97-.83,2.4-2.15,4.2-2.15.8,0,1.45.25,1.92.72.58.58.8,1.42.8,2.47v7.17c0,.15,0,.25,1.25.35l.33.02.08.15h-5.35l.07-.15.45-.02c.88-.05,1.05-.18,1.05-.38v-6.8c0-1.45-.72-2.1-2.2-2.1-1.15,0-2.02.45-2.65,1.03v7.92c0,.2.15.25,1.27.33l.35.02.08.15h-5.32l.08-.15Z"/>
      <path class="st0" d="M651.36,894.75c0-3.22,2.2-5.87,5.42-5.87,2.55,0,4.05,1.38,4.05,3.42,0,.12-.03.17-.05.35l-7.07-.03c-.05.35-.08,1-.08,1.35,0,2.88,1.67,4.67,3.85,4.67,1.42,0,2.47-.4,3.42-1.97l.17.1c-1.2,2.12-2.65,3.35-4.7,3.35-2.92,0-5.02-2.32-5.02-5.37ZM658.56,892.35c0-1.6-.5-3.22-1.97-3.22-1.38,0-2.52,1.6-2.82,3.27l4.8-.05Z"/>
      <path class="st0" d="M682.86,897.53l.12-7.25-1.97-.03.1-.28,1.22-.92,2.72-2.15.07.03-.02,2.27,3.77.03-.45.95h-3.32l-.17,7.22c0,.88.52,1.5,1.72,1.5.92,0,1.6-.32,2.12-.8l.12.1c-1,1-2.22,1.92-3.5,1.92-1.67,0-2.57-.82-2.55-2.6Z"/>
      <path class="st0" d="M696.88,899.65l.45-.02c.77-.05,1.05-.08,1.05-.38v-7.15c0-1.52-.17-1.77-1.02-1.95l-.58-.12.02-.1,3.67-.97v10.35c0,.2.15.25,1.25.33l.35.02.08.15h-5.35l.08-.15ZM697.79,885.45c0-.58.42-1.42,1.42-1.42s1.42.85,1.42,1.42-.45,1.38-1.42,1.38-1.42-.83-1.42-1.38Z"/>
      <path class="st0" d="M710.18,899.65l.45-.02c.77-.05,1.05-.08,1.05-.38v-7.12c0-1.55-.17-1.8-1.02-1.97l-.58-.12.02-.1,3.7-.97-.07,2.05.07.02c.83-.82,1.97-2.12,3.77-2.12.85,0,1.5.3,1.97.75.27.3.55.8.62,1.42l.02.02c.92-.97,2.1-2.2,3.85-2.2.88,0,1.47.22,1.97.72.55.55.77,1.55.77,2.6v7.05c0,.15,0,.25,1.25.35l.33.02.07.15h-5.32l.08-.15.45-.02c.88-.05,1.03-.18,1.03-.38v-6.77c0-1.5-.5-2.12-2.02-2.12-1,0-2.12.53-2.3,1.08l-.08.22v7.62c0,.15,0,.25,1.25.35l.35.02.08.15h-5.3l.08-.15.45-.02c.85-.05,1-.18,1-.38v-6.77c0-1.5-.52-2.12-2-2.12-1.03,0-1.75.42-2.4.97v7.97c0,.2.15.25,1.22.33l.38.02.05.15h-5.32l.08-.15Z"/>
      <path class="st0" d="M736.41,894.75c0-3.22,2.2-5.87,5.42-5.87,2.55,0,4.05,1.38,4.05,3.42,0,.12-.03.17-.05.35l-7.07-.03c-.05.35-.07,1-.07,1.35,0,2.88,1.67,4.67,3.85,4.67,1.42,0,2.47-.4,3.42-1.97l.18.1c-1.2,2.12-2.65,3.35-4.7,3.35-2.92,0-5.02-2.32-5.02-5.37ZM743.61,892.35c0-1.6-.5-3.22-1.97-3.22-1.38,0-2.52,1.6-2.82,3.27l4.8-.05Z"/>
      <path class="st0" d="M257.36,947.53l.12-7.25-1.97-.03.1-.28,1.22-.92,2.72-2.15.07.03-.02,2.27,3.77.03-.45.95h-3.32l-.17,7.22c0,.88.52,1.5,1.72,1.5.92,0,1.6-.32,2.12-.8l.12.1c-1,1-2.22,1.92-3.5,1.92-1.67,0-2.57-.82-2.55-2.6Z"/>
      <path class="st0" d="M271.09,944.55c0-3.15,2.42-5.67,5.75-5.67s5.75,2.42,5.75,5.57-2.42,5.67-5.75,5.67-5.75-2.42-5.75-5.57ZM280.06,944.68c0-1.95-.42-3.82-1.35-4.75-.48-.45-1.05-.85-1.92-.85-2.2,0-3.17,2.7-3.17,5.15,0,2.05.35,3.87,1.3,4.82.55.55,1.15.88,1.95.88,2.05,0,3.2-2.6,3.2-5.25Z"/>
      <path class="st0" d="M303.34,949.55l-.23-3.12.15-.03.52,1.12c.62,1.42,1.62,2.37,3,2.37,1.47,0,2.35-.95,2.35-2.1,0-1.25-1.02-1.97-2.65-2.55-1.52-.55-3-1.25-3-3.22s1.57-3.12,3.65-3.12c.88,0,1.62.15,2.27.42l.8-.28.12,3-.15.02-1.37-2.2c-.35-.33-.95-.75-1.72-.75-1.32,0-2,.78-2,1.88,0,1.25.97,1.67,2.55,2.25,1.77.65,3.22,1.38,3.22,3.4,0,1.8-1.5,3.47-4.25,3.47-1.37,0-2.35-.22-3.27-.57Z"/>
      <path class="st0" d="M319.16,949.65l.42-.02c.75-.05,1.02-.08,1.02-.38v-13.97c0-.67-.17-.88-1-1.1l-.57-.15.02-.1,3.65-.95v8.02l.05.05c.98-.83,2.4-2.15,4.2-2.15.8,0,1.45.25,1.92.72.58.58.8,1.42.8,2.47v7.17c0,.15,0,.25,1.25.35l.32.02.08.15h-5.35l.07-.15.45-.02c.87-.05,1.05-.18,1.05-.38v-6.8c0-1.45-.72-2.1-2.2-2.1-1.15,0-2.02.45-2.65,1.03v7.92c0,.2.15.25,1.27.33l.35.02.08.15h-5.32l.08-.15Z"/>
      <path class="st0" d="M345.24,948.2v-.03c-.87.92-1.92,1.85-3.17,1.85-1.45,0-2.57-1.07-2.57-2.37,0-1.58,1.12-2.88,5.9-3.95l.03-.78c.07-2.47-.95-3.42-2.47-3.42-.9,0-1.87.5-1.87.75,0,.17.65.7.65,1.38,0,.55-.48,1.07-1.2,1.07s-1.2-.45-1.2-1.02c0-1.33,3.05-2.8,5.05-2.8,2.37,0,3.37.8,3.2,3.95l-.25,4.77c-.05.87.27,1.32.87,1.32.4,0,.73-.33,1.05-.62l.12.08c-.42.58-1.27,1.67-2.37,1.67s-1.62-.65-1.75-1.85ZM345.24,947.9l.15-3.95c-3.2.7-3.8,1.77-3.8,3,0,1.1.82,1.88,1.62,1.88.7,0,1.3-.18,2.02-.92Z"/>
      <path class="st0" d="M357.04,949.65l.45-.02c.77-.05,1.05-.08,1.05-.38v-7.12c0-1.55-.17-1.8-1.02-1.97l-.58-.12.02-.1,3.7-.97-.07,3.95h.05c.67-2.52,1.72-4,3.35-4,.88,0,1.62.65,1.62,1.38s-.52,1.4-1.37,1.4c-.7,0-1.45-.47-1.5-1.58-.95.2-1.45,1.35-2.1,3.65v5.55c0,.2.17.3,1.27.33l.77.02.08.15h-5.8l.08-.15Z"/>
      <path class="st0" d="M373.31,944.75c0-3.22,2.2-5.87,5.42-5.87,2.55,0,4.05,1.38,4.05,3.42,0,.12-.03.17-.05.35l-7.07-.03c-.05.35-.07,1-.07,1.35,0,2.88,1.67,4.67,3.85,4.67,1.42,0,2.47-.4,3.42-1.97l.18.1c-1.2,2.12-2.65,3.35-4.7,3.35-2.92,0-5.02-2.32-5.02-5.37ZM380.51,942.35c0-1.6-.5-3.22-1.97-3.22-1.38,0-2.52,1.6-2.82,3.27l4.8-.05Z"/>
      <path class="st0" d="M404.81,947.53l.12-7.25-1.97-.03.1-.28,1.22-.92,2.72-2.15.07.03-.02,2.27,3.77.03-.45.95h-3.32l-.17,7.22c0,.88.52,1.5,1.72,1.5.92,0,1.6-.32,2.12-.8l.12.1c-1,1-2.22,1.92-3.5,1.92-1.67,0-2.57-.82-2.55-2.6Z"/>
      <path class="st0" d="M418.64,949.65l.43-.02c.75-.05,1.02-.08,1.02-.38v-13.97c0-.67-.17-.88-1-1.1l-.57-.15.02-.1,3.65-.95v8.02l.05.05c.97-.83,2.4-2.15,4.2-2.15.8,0,1.45.25,1.92.72.58.58.8,1.42.8,2.47v7.17c0,.15,0,.25,1.25.35l.32.02.08.15h-5.35l.07-.15.45-.02c.87-.05,1.05-.18,1.05-.38v-6.8c0-1.45-.73-2.1-2.2-2.1-1.15,0-2.02.45-2.65,1.03v7.92c0,.2.15.25,1.27.33l.35.02.08.15h-5.32l.07-.15Z"/>
      <path class="st0" d="M438.69,949.65l.45-.02c.77-.05,1.05-.08,1.05-.38v-7.15c0-1.52-.17-1.77-1.02-1.95l-.58-.12.02-.1,3.67-.97v10.35c0,.2.15.25,1.25.33l.35.02.08.15h-5.35l.08-.15ZM439.59,935.45c0-.58.42-1.42,1.42-1.42s1.42.85,1.42,1.42-.45,1.38-1.42,1.38-1.42-.83-1.42-1.38Z"/>
      <path class="st0" d="M452.36,949.55l-.23-3.12.15-.03.52,1.12c.62,1.42,1.62,2.37,3,2.37,1.47,0,2.35-.95,2.35-2.1,0-1.25-1.02-1.97-2.65-2.55-1.52-.55-3-1.25-3-3.22s1.57-3.12,3.65-3.12c.88,0,1.62.15,2.27.42l.8-.28.12,3-.15.02-1.37-2.2c-.35-.33-.95-.75-1.72-.75-1.32,0-2,.78-2,1.88,0,1.25.97,1.67,2.55,2.25,1.77.65,3.22,1.38,3.22,3.4,0,1.8-1.5,3.47-4.25,3.47-1.37,0-2.35-.22-3.27-.57Z"/>
      <path class="st0" d="M480.39,949.65l.45-.02c.77-.05,1.05-.08,1.05-.38v-7.12c0-1.55-.17-1.8-1.02-1.97l-.58-.12.02-.1,3.7-.97-.07,2.05.07.02c.82-.82,1.97-2.12,3.77-2.12.85,0,1.5.3,1.97.75.27.3.55.8.62,1.42l.02.02c.92-.97,2.1-2.2,3.85-2.2.88,0,1.47.22,1.97.72.55.55.77,1.55.77,2.6v7.05c0,.15,0,.25,1.25.35l.32.02.08.15h-5.32l.08-.15.45-.02c.88-.05,1.02-.18,1.02-.38v-6.77c0-1.5-.5-2.12-2.02-2.12-1,0-2.12.53-2.3,1.08l-.07.22v7.62c0,.15,0,.25,1.25.35l.35.02.07.15h-5.3l.07-.15.45-.02c.85-.05,1-.18,1-.38v-6.77c0-1.5-.52-2.12-2-2.12-1.02,0-1.75.42-2.4.97v7.97c0,.2.15.25,1.22.33l.38.02.05.15h-5.32l.08-.15Z"/>
      <path class="st0" d="M506.61,944.55c0-3.15,2.42-5.67,5.75-5.67s5.75,2.42,5.75,5.57-2.42,5.67-5.75,5.67-5.75-2.42-5.75-5.57ZM515.58,944.68c0-1.95-.42-3.82-1.35-4.75-.47-.45-1.05-.85-1.92-.85-2.2,0-3.17,2.7-3.17,5.15,0,2.05.35,3.87,1.3,4.82.55.55,1.15.88,1.95.88,2.05,0,3.2-2.6,3.2-5.25Z"/>
      <path class="st0" d="M526.49,949.65l.45-.02c.78-.05,1.05-.08,1.05-.38v-7.12c0-1.55-.17-1.8-1.02-1.97l-.58-.12.03-.1,3.7-.97-.08,2.05.08.02c.82-.82,1.97-2.12,3.77-2.12.85,0,1.5.3,1.97.75.28.3.55.8.62,1.42l.03.02c.92-.97,2.1-2.2,3.85-2.2.88,0,1.47.22,1.97.72.55.55.78,1.55.78,2.6v7.05c0,.15,0,.25,1.25.35l.33.02.08.15h-5.32l.08-.15.45-.02c.88-.05,1.02-.18,1.02-.38v-6.77c0-1.5-.5-2.12-2.02-2.12-1,0-2.12.53-2.3,1.08l-.07.22v7.62c0,.15,0,.25,1.25.35l.35.02.07.15h-5.3l.07-.15.45-.02c.85-.05,1-.18,1-.38v-6.77c0-1.5-.53-2.12-2-2.12-1.02,0-1.75.42-2.4.97v7.97c0,.2.15.25,1.22.33l.38.02.05.15h-5.32l.08-.15Z"/>
      <path class="st0" d="M552.71,944.75c0-3.22,2.2-5.87,5.42-5.87,2.55,0,4.05,1.38,4.05,3.42,0,.12-.03.17-.05.35l-7.07-.03c-.05.35-.07,1-.07,1.35,0,2.88,1.67,4.67,3.85,4.67,1.42,0,2.47-.4,3.42-1.97l.18.1c-1.2,2.12-2.65,3.35-4.7,3.35-2.92,0-5.02-2.32-5.02-5.37ZM559.91,942.35c0-1.6-.5-3.22-1.97-3.22-1.38,0-2.52,1.6-2.82,3.27l4.8-.05Z"/>
      <path class="st0" d="M570.71,949.65l.45-.02c.77-.05,1.05-.08,1.05-.38v-7.12c0-1.55-.17-1.8-1.02-1.97l-.58-.12.02-.1,3.7-.97-.07,2.07.07.03c.98-.83,2.42-2.15,4.2-2.15.8,0,1.47.22,1.95.72.58.55.78,1.42.78,2.5v7.15c0,.15,0,.25,1.27.35l.33.02.08.15h-5.32l.08-.15.45-.02c.87-.05,1-.18,1-.38v-6.77c0-1.47-.7-2.12-2.2-2.12-1.12,0-2,.45-2.62,1.03v7.92c0,.2.15.25,1.22.33l.38.02.05.15h-5.32l.08-.15Z"/>
      <path class="st0" d="M592.31,947.53l.12-7.25-1.97-.03.1-.28,1.22-.92,2.72-2.15.07.03-.02,2.27,3.77.03-.45.95h-3.32l-.17,7.22c0,.88.52,1.5,1.72,1.5.92,0,1.6-.32,2.12-.8l.12.1c-1,1-2.22,1.92-3.5,1.92-1.67,0-2.57-.82-2.55-2.6Z"/>
      <path class="st0" d="M619.88,941.38c-.65-1.7-.8-1.9-1.65-1.95l-.45-.02-.08-.15h5.55l-.05.15-.42.02c-1,.05-1.22.2-.85,1.12l2.65,6.75,2.22-5.22-.55-1.3c-.47-1.12-.62-1.27-1.52-1.35l-.35-.02-.1-.15h5.45l-.05.15-.42.02c-.92.05-1.05.35-.75,1.12l2.9,6.77,1.77-4.87c.83-2.3.65-2.87-1.05-3.02l-.35-.02-.08-.15h4.3l-.08.15-.35.02c-1.15.08-1.22.48-2.17,3.17l-2.72,7.45h-.35l-3.37-7.7-3.25,7.7h-.38l-3.45-8.67Z"/>
      <path class="st0" d="M643.41,949.65l.45-.02c.78-.05,1.05-.08,1.05-.38v-7.15c0-1.52-.17-1.77-1.02-1.95l-.58-.12.03-.1,3.67-.97v10.35c0,.2.15.25,1.25.33l.35.02.08.15h-5.35l.08-.15ZM644.31,935.45c0-.58.42-1.42,1.42-1.42s1.42.85,1.42,1.42-.45,1.38-1.42,1.38-1.42-.83-1.42-1.38Z"/>
      <path class="st0" d="M658.21,947.53l.12-7.25-1.97-.03.1-.28,1.22-.92,2.72-2.15.08.03-.03,2.27,3.77.03-.45.95h-3.32l-.17,7.22c0,.88.53,1.5,1.72,1.5.92,0,1.6-.32,2.12-.8l.12.1c-1,1-2.22,1.92-3.5,1.92-1.67,0-2.57-.82-2.55-2.6Z"/>
      <path class="st0" d="M672.04,949.65l.42-.02c.75-.05,1.02-.08,1.02-.38v-13.97c0-.67-.17-.88-1-1.1l-.58-.15.03-.1,3.65-.95v8.02l.05.05c.97-.83,2.4-2.15,4.2-2.15.8,0,1.45.25,1.92.72.58.58.8,1.42.8,2.47v7.17c0,.15,0,.25,1.25.35l.32.02.08.15h-5.35l.08-.15.45-.02c.87-.05,1.05-.18,1.05-.38v-6.8c0-1.45-.73-2.1-2.2-2.1-1.15,0-2.02.45-2.65,1.03v7.92c0,.2.15.25,1.28.33l.35.02.08.15h-5.32l.08-.15Z"/>
      <path class="st0" d="M712.13,948h-.02c-.95.9-2.35,2.12-4.12,2.12-.8,0-1.45-.22-1.95-.72-.55-.55-.75-1.42-.75-2.5v-7.17c0-.15,0-.22-1.28-.32l-.35-.03-.08-.15h3.82l-.02,7.35c0,1.47.72,2.1,2.22,2.1,1.1,0,1.88-.4,2.47-.95v-7.1c0-.97-.22-1.15-1.25-1.22l-.35-.03-.08-.15h3.8v8.82c0,.58.1.65.38.72l1.22.25-.03.12-3.65,1.05v-2.2Z"/>
      <path class="st0" d="M723.93,949.55l-.23-3.12.15-.03.52,1.12c.62,1.42,1.62,2.37,3,2.37,1.47,0,2.35-.95,2.35-2.1,0-1.25-1.02-1.97-2.65-2.55-1.52-.55-3-1.25-3-3.22s1.58-3.12,3.65-3.12c.88,0,1.62.15,2.27.42l.8-.28.12,3-.15.02-1.37-2.2c-.35-.33-.95-.75-1.72-.75-1.33,0-2,.78-2,1.88,0,1.25.97,1.67,2.55,2.25,1.77.65,3.22,1.38,3.22,3.4,0,1.8-1.5,3.47-4.25,3.47-1.37,0-2.35-.22-3.27-.57Z"/>
      <path class="st0" d="M740.53,948.6c0-.75.65-1.45,1.53-1.45s1.5.7,1.5,1.45c0,.8-.62,1.5-1.5,1.5s-1.53-.7-1.53-1.5Z"/>
    </g>
    <g>
      <path class="st0" d="M334.4,713.86c.36,0,.68-.08.96-.2.24-.08.44-.2.68-.32.16-.08.36-.2.56-.28.16-.08.4-.12.68-.12.44,0,.88.04,1.36.04.44.08.92.16,1.4.28.8.24,1.2.72,1.2,1.36,0,.76-.56,1.12-1.6,1.12h-3.88c-1.36,0-2.64.04-3.84.04-1.28.08-2.44.12-3.48.12-1.12.08-2.04.12-2.8.2-.4.04-.72.12-.96.24-.32.16-.6.32-.84.4-.28.16-.56.24-.8.28-.32.08-.64.04-1.04-.12-.72-.24-1.44-.56-2.08-.96-.72-.4-1.16-.68-1.36-.88-.08-.08-.16-.16-.2-.24-.08-.08-.12-.16-.12-.32,0-.24.08-.44.32-.52.2-.08.48-.08.8-.04.68.12,1.36.2,2.08.2.64.08,1.28.08,1.92.08h2.36c.64.04,1.36.04,2.16,0,.72,0,1.6-.04,2.64-.12,1,0,2.28-.08,3.88-.24ZM322.68,723.61c0-1.76.68-3.16,2.04-4.28,1.32-1.04,3.16-1.6,5.52-1.6s4.16.56,5.52,1.6c1.32,1.12,2,2.52,2,4.28s-.68,3.16-2.04,4.2c-1.36,1.08-3.2,1.6-5.48,1.6s-4.16-.52-5.52-1.6c-1.36-1.04-2.04-2.44-2.04-4.2ZM334.76,710.34c0,.4-.2.68-.52.84-.36.24-.76.36-1.24.4-.96.16-1.88.24-2.76.24-.92.08-1.92.08-3.04.04-.32,0-.6-.04-.88-.2-.32-.12-.6-.28-.84-.52-.32-.2-.56-.44-.8-.68-.24-.24-.44-.48-.6-.72-.12-.12-.16-.28-.16-.48,0-.16.08-.32.32-.4.16-.08.48-.04.88.08.28.08.6.16,1,.2.36.08.76.16,1.16.2.32.08.68.08,1.16.08.4.04.88.04,1.4.04.48,0,1,0,1.56-.04.52,0,1.04,0,1.52-.04.6,0,1.08.08,1.4.16.28.16.44.4.44.8ZM342.24,739.89c.32,0,.64-.08.88-.16.24-.16.44-.28.68-.36.16-.16.36-.28.56-.36.16-.12.4-.16.64-.16.4,0,.84,0,1.32.08.4,0,.84.08,1.32.24.4.08.68.28.88.52.16.2.24.44.24.76,0,.72-.52,1.12-1.52,1.12l-15.24.16c-2.08.04-3.12-1.04-3.12-3.24v-3.12c0-.56-.24-1.04-.72-1.44-.52-.36-1.28-.72-2.24-1.04-.24-.08-.44-.16-.56-.32-.16-.08-.24-.24-.24-.48,0-.2.08-.36.32-.52.2-.12.52-.2,1-.2.24,0,.72.04,1.48.08.72.08,1.44.2,2.16.36.56.16.96.32,1.28.52.24.24.4.52.4.76v5.8c0,.76.36,1.16,1.08,1.16l9.4-.16ZM325.56,723.49c0,1.12.4,2.04,1.28,2.72.84.72,1.96,1.04,3.4,1.04,1.36,0,2.48-.32,3.36-1.04.8-.68,1.24-1.6,1.24-2.72s-.44-2.04-1.24-2.72c-.88-.64-2-1-3.36-1-1.44,0-2.56.36-3.4,1-.88.68-1.28,1.6-1.28,2.72ZM346.2,719.93h1.36c.32,0,.64-.04.88-.16.24-.08.44-.2.68-.36.16-.12.36-.24.56-.36.16-.08.4-.16.64-.16.4,0,.84.04,1.32.04.4.08.84.16,1.32.28.4.12.68.28.88.48.16.24.24.52.24.8,0,.76-.52,1.12-1.52,1.12h-6.36v5.32c0,.56-.04,1.24-.04,2.04-.04.84-.12,1.64-.2,2.36-.12.76-.28,1.4-.52,1.92-.24.56-.6.8-1,.8-.16,0-.32-.04-.44-.2-.16-.12-.24-.36-.32-.68-.08-.32-.16-.72-.2-1.28-.08-.52-.08-1.2-.08-2.04v-19.8c0-.56-.28-1.04-.76-1.44-.56-.36-1.32-.72-2.28-1.04-.24-.08-.44-.16-.56-.32-.16-.08-.24-.24-.24-.48,0-.2.08-.36.32-.52.2-.12.52-.2,1-.2.24,0,.72.04,1.48.08.72.08,1.44.2,2.16.36.56.16,1.04.32,1.44.48.4.2.6.44.6.68,0,.32-.08.64-.16,1-.16.4-.2.88-.2,1.48v9.8Z"/>
      <path class="st0" d="M360,714.46c0-.56-.24-1.04-.68-1.44-.48-.32-1.2-.68-2.16-1-.24-.08-.44-.16-.56-.32-.16-.08-.24-.24-.24-.48,0-.2.08-.36.32-.52.2-.12.52-.2,1-.2.24,0,.72.04,1.52.08.72.08,1.48.16,2.2.32.04.04.08.04.12.04,0,0,.04.04.12.04l7.84-.2c.32,0,.64-.04.88-.2.24-.08.44-.2.68-.36.16-.08.36-.2.56-.32.16-.08.4-.16.64-.16.4,0,.92.04,1.52.04.56.08,1.04.16,1.52.28.4.12.68.28.88.48.16.24.24.52.24.8,0,.76-.52,1.12-1.52,1.12l-11.8.16v10.32c0,.4.08.64.24.72.12.16.36.2.68.2,2.16,0,4.36-.16,6.68-.56,2.28-.36,4.52-.8,6.76-1.36.24-.04.52-.08.8-.08.24,0,.4.16.48.44.04.24-.04.44-.2.6-.2.2-.44.32-.68.4-1.2.44-2.48.84-3.8,1.2-1.36.4-2.68.72-3.96.96-1.32.32-2.56.52-3.68.68-1.16.16-2.12.24-2.92.24-1.28,0-2.2-.32-2.68-1-.56-.64-.8-1.6-.8-2.88v-8.04ZM385.52,738.05c0,.36-.04.84-.12,1.48-.08.56-.2,1.16-.32,1.72-.16.56-.36,1.04-.56,1.44-.24.4-.48.6-.8.6-.4,0-.64-.36-.8-1.04-.16-.72-.24-1.92-.24-3.64v-7.68c-.48,0-1.24.04-2.28.04-1.04.04-2.16.08-3.28.08-1.2.08-2.32.12-3.36.16-1.08.08-1.88.12-2.36.16-.4.08-.68.16-.92.24-.28.16-.52.28-.76.36-.24.16-.52.24-.76.28-.28.08-.6.04-.96-.12-.36-.08-.72-.24-1.04-.4-.4-.16-.72-.32-1-.48-.32-.16-.6-.32-.8-.48-.24-.12-.44-.24-.52-.32s-.16-.16-.2-.24c-.08-.08-.12-.16-.12-.32,0-.24.08-.4.32-.48.16-.08.44-.08.76-.04.64.12,1.28.2,1.96.2.64.04,1.24.04,1.84.04.48,0,1.24,0,2.24-.04.96,0,2.04,0,3.16-.08,1.08,0,2.16-.04,3.24-.08,1.04,0,1.92-.04,2.6-.12.4,0,.76-.08,1-.16.24-.04.44-.12.64-.2.16-.08.32-.12.48-.2.16-.04.36-.08.64-.08.32,0,.64.04,1.04.04.32.08.68.12,1,.2.28.08.52.2.76.32.16.16.28.36.28.56,0,.24-.04.4-.08.56-.08.16-.12.36-.2.56-.08.24-.16.48-.2.72-.08.32-.12.64-.12,1.04l-.16,5.4ZM378.48,718.17c-.32.08-.52.16-.68.24l-.48.28c-.16.08-.32.16-.48.16-.2.04-.44,0-.76-.08-.4-.08-.92-.28-1.48-.56-.6-.24-1.04-.48-1.32-.72-.4-.24-.56-.52-.56-.76,0-.32.2-.48.64-.48h1.12c.32.04.72.04,1.16.04h3.52l2.08-.04c.68,0,1.32-.04,1.88-.08v-6.12c0-.56-.28-1.04-.76-1.44-.56-.36-1.32-.72-2.28-1.04-.24-.08-.44-.16-.56-.32-.16-.08-.24-.24-.24-.48,0-.2.08-.36.32-.52.2-.12.52-.2,1-.2.24,0,.72.04,1.48.08.72.08,1.44.2,2.16.36.56.16,1.04.32,1.44.48.4.2.6.44.6.68,0,.32-.08.64-.16,1-.16.4-.2.88-.2,1.48v10.24c0,.56-.04,1.24-.04,2.04-.04.84-.12,1.64-.2,2.36-.12.76-.28,1.4-.52,1.92-.24.56-.6.8-1,.8-.16,0-.32-.04-.44-.2-.16-.12-.24-.36-.32-.68-.08-.32-.16-.72-.2-1.28-.08-.52-.08-1.2-.08-2.04v-5.36c-.76.04-1.56.08-2.36.08-.84.04-1.6.08-2.28.16Z"/>
      <path class="st0" d="M427,728.45c-.84,0-1.8-.04-2.88-.04h-7.36c-1.32,0-2.64.04-3.92.04v7.36c0,.56-.04,1.28-.04,2.08-.04.8-.12,1.56-.2,2.32-.16.72-.32,1.36-.56,1.92-.28.52-.64.8-1.04.8-.16,0-.32-.08-.44-.2-.16-.16-.28-.36-.36-.68-.12-.32-.2-.76-.24-1.28-.08-.56-.08-1.24-.08-2.04v-10.24c-1.68.08-3.2.12-4.56.16-1.36.08-2.44.16-3.2.24-.48.08-.88.16-1.24.28-.4.16-.76.28-1.08.36-.36.16-.72.24-1.08.24-.4.08-.8,0-1.2-.16-.88-.28-1.6-.6-2.2-1-.64-.36-1.04-.64-1.28-.88-.12-.08-.2-.16-.28-.28-.08-.08-.12-.2-.12-.36,0-.28.12-.48.36-.6.24-.08.52-.08.92-.04.76.16,1.6.24,2.56.28.92.08,1.72.08,2.44.08h2c.96,0,2.04,0,3.32-.04,1.24,0,2.6,0,4.04-.04,1.4,0,2.76,0,4.08-.04,1.28,0,2.48-.04,3.56-.08,1.04,0,1.88-.04,2.44-.12.72-.04,1.32-.12,1.76-.24.4-.08.76-.2,1.04-.32l.68-.28c.2-.08.44-.12.76-.12.24,0,.52.04.88.04.32.04.68.08,1.08.08.32.08.68.12,1.08.16.32.08.64.12.92.2.48.16.8.32,1,.48.16.2.28.44.28.72,0,.4-.16.68-.44.92-.32.24-.8.36-1.4.32ZM396.8,722.01c1.44-.6,2.88-1.32,4.28-2.2,1.36-.8,2.6-1.72,3.8-2.72,1.16-.96,2.2-2,3.16-3.08.88-1.04,1.64-2.12,2.2-3.24.16-.28.12-.52-.04-.72-.24-.2-.52-.4-.8-.6-.32-.16-.6-.32-.88-.48-.4-.16-.6-.36-.64-.52-.08-.16-.08-.32,0-.52.04-.12.16-.24.4-.32.16-.08.52-.08,1-.04.6.08,1.28.2,2,.4.72.24,1.48.52,2.36.92.4.24.68.52.76.84.04.36-.04.72-.24,1.12-.32.56-.64,1.12-1,1.6-.4.56-.8,1.08-1.2,1.56l6.04,2.6c.36.16.72.24,1.08.24.32.04.6.04.92,0h.88c.24.04.52.12.84.24l1.72,1.16c.56.44,1.12.92,1.72,1.44.12.16.24.28.36.4.08.16.16.32.2.48.08.64-.16,1.04-.64,1.2-.16.08-.4.08-.72,0-.36-.04-.84-.2-1.44-.52l-12.28-5.8c-.92.92-1.88,1.76-2.92,2.52-1.08.8-2.16,1.52-3.28,2.16-1.16.64-2.32,1.2-3.44,1.68-1.16.52-2.28.92-3.36,1.16-.88.24-1.36.16-1.48-.16-.16-.28.08-.56.64-.8Z"/>
      <path class="st0" d="M464.2,723.69c.2-.96-.6-1.52-2.44-1.64-.24,0-.4-.04-.48-.2-.12-.12-.16-.24-.16-.4s.04-.28.16-.44c.08-.08.24-.16.48-.16h7.12c.2,0,.36.08.48.2.08.16.12.28.12.4,0,.16-.08.28-.16.4-.12.16-.28.2-.48.2-.48.04-.84.08-1.08.16-.32.12-.56.24-.72.4-.2.2-.36.4-.48.64-.16.28-.28.6-.4.92-.72,1.8-1.56,3.56-2.44,5.32-.96,1.76-2.04,3.36-3.28,4.8,1.04,1.12,2.12,2,3.24,2.64,1.08.64,2.12,1,3.16,1,.8,0,1.56-.28,2.28-.8.64-.52,1.2-1.24,1.68-2.16.04-.04.08-.12.16-.24,0-.08.08-.12.24-.08.12.08.2.16.2.24-.04.12-.08.2-.08.24-.48,1.36-1.12,2.44-2,3.28-.92.8-2,1.2-3.24,1.2s-2.52-.32-3.72-.96c-1.28-.64-2.48-1.48-3.64-2.56-1.2,1.08-2.56,1.92-4,2.56-1.52.64-3.16.96-5,.96-.96,0-1.84-.16-2.64-.48-.84-.32-1.56-.8-2.16-1.36-.64-.6-1.12-1.32-1.44-2.2-.36-.84-.52-1.8-.52-2.88,0-1.84.56-3.56,1.76-5.08,1.16-1.52,3.08-2.92,5.72-4.28-.88-2.24-1.28-4.28-1.28-6.12,0-.96.12-1.88.44-2.76.28-.8.72-1.52,1.28-2.16.56-.6,1.24-1.08,2.04-1.44.8-.32,1.68-.48,2.72-.48.8,0,1.52.12,2.24.36.68.24,1.28.6,1.84,1,.48.48.92,1,1.24,1.6.28.64.44,1.36.44,2.16s-.16,1.56-.4,2.2c-.28.68-.72,1.32-1.32,1.92-.64.64-1.44,1.28-2.44,1.88-1.04.64-2.28,1.28-3.76,2,.68,1.68,1.52,3.32,2.56,4.96.96,1.68,2.08,3.24,3.28,4.6,1.28-1.44,2.32-3.04,3.2-4.72.8-1.68,1.36-3.2,1.68-4.64ZM446.28,732.41c0,.72.08,1.4.24,2.04.16.68.4,1.24.8,1.72.32.52.8.92,1.36,1.2.56.28,1.24.44,2.08.44,1.2,0,2.4-.28,3.56-.8,1.12-.52,2.16-1.24,3.2-2.12-1.36-1.44-2.6-3.04-3.68-4.8-1.12-1.76-2.08-3.52-2.84-5.36-1.68.96-2.88,2.04-3.6,3.32-.76,1.32-1.12,2.76-1.12,4.36ZM458.92,715.34c0-1.08-.32-1.92-.88-2.52-.6-.56-1.36-.84-2.24-.84-1.24,0-2.2.44-2.88,1.28-.72.88-1.04,2.16-1.04,3.84,0,.72.08,1.48.28,2.32.16.88.44,1.8.8,2.76,1.2-.56,2.16-1.16,2.96-1.72.76-.56,1.36-1.12,1.84-1.68.4-.56.72-1.12.92-1.68.16-.56.24-1.12.24-1.76Z"/>
      <path class="st0" d="M503.24,721.05c0,.56-.04,1.2-.04,1.88-.04.72-.12,1.36-.2,1.92-.12.64-.28,1.12-.52,1.52-.24.4-.6.6-1,.6-.24,0-.4-.12-.56-.4-.2-.24-.32-.68-.4-1.4h-9.88c-.12.64-.28,1.16-.48,1.56-.24.44-.6.64-1.04.64-.16,0-.32-.04-.44-.2-.16-.12-.24-.36-.32-.68-.08-.32-.16-.72-.2-1.28-.08-.52-.08-1.2-.08-2.04v-8.96c0-.56-.24-1.04-.68-1.44-.48-.36-1.2-.72-2.16-1.04-.24-.08-.44-.16-.56-.32-.16-.08-.24-.24-.24-.48,0-.2.08-.36.32-.52.2-.12.52-.2,1-.2.24,0,.68.04,1.36.08.64.08,1.36.2,2.08.36.56.16.96.32,1.28.52.24.24.4.52.4.76v4.04h9.56v-3.36c0-.56-.24-1.04-.68-1.44-.48-.36-1.2-.72-2.16-1.04-.24-.08-.44-.16-.56-.32-.16-.08-.24-.24-.24-.48,0-.2.08-.36.32-.52.2-.12.52-.2,1-.2.24,0,.68.04,1.36.08.64.08,1.36.2,2.08.36.56.16.96.32,1.28.52.24.24.4.52.4.76v10.72ZM490.88,717.94v4.4c0,.32-.04.6-.04.88h9.6v-5.28h-9.56ZM512.12,738.05c0,.36-.04.84-.12,1.48-.08.56-.2,1.16-.32,1.72-.16.56-.36,1.04-.56,1.44-.24.4-.48.6-.8.6-.4,0-.64-.36-.8-1.04-.16-.72-.24-1.92-.24-3.64v-7.68c-.48,0-1.2.04-2.08.04-.92.04-1.88.08-2.88.08-1.04.08-2,.12-2.92.16-.96.08-1.68.12-2.16.16-.4.08-.68.16-.92.24-.28.16-.52.28-.76.36-.24.16-.52.24-.76.28-.28.08-.6.04-.96-.12-.36-.08-.72-.24-1.04-.4-.4-.16-.72-.32-1-.48-.32-.16-.6-.32-.8-.48-.24-.12-.44-.24-.52-.32s-.16-.16-.2-.24c-.08-.08-.12-.16-.12-.32,0-.24.08-.4.32-.48.16-.08.44-.08.76-.04.64.12,1.28.2,1.96.2.64.04,1.24.04,1.84.04.48,0,1.2,0,2.08-.04.84,0,1.76,0,2.72-.08.92,0,1.84-.04,2.8-.08.92,0,1.72-.04,2.4-.12.4,0,.76-.08,1-.16.24-.04.44-.12.64-.2.16-.08.32-.12.48-.2.16-.04.36-.08.64-.08.32,0,.64.04,1.04.04.32.08.68.12,1,.2.28.08.52.2.76.32.16.16.28.36.28.56,0,.24-.04.4-.08.56-.08.16-.12.36-.2.56-.08.24-.16.48-.2.72-.08.32-.12.64-.12,1.04l-.16,5.4ZM512.52,716.74h1.36c.32,0,.64-.04.88-.16.24-.08.44-.2.68-.36.16-.12.36-.24.56-.36.16-.08.4-.16.64-.16.4,0,.84.04,1.32.04.4.08.84.16,1.32.28.4.12.68.28.88.48.16.24.24.52.24.8,0,.76-.52,1.12-1.52,1.12h-6.36v1.96c0,.56-.04,1.24-.04,2.04-.04.84-.12,1.64-.2,2.36-.12.76-.28,1.4-.52,1.92-.24.56-.6.8-1,.8-.16,0-.32-.04-.44-.2-.16-.12-.24-.36-.32-.68-.08-.32-.16-.72-.2-1.28-.08-.52-.08-1.2-.08-2.04v-13.24c0-.56-.28-1.04-.76-1.44-.56-.36-1.32-.72-2.28-1.04-.24-.08-.44-.16-.56-.32-.16-.08-.24-.24-.24-.48,0-.2.08-.36.32-.52.2-.12.52-.2,1-.2.24,0,.72.04,1.48.08.72.08,1.44.2,2.16.36.56.16,1.04.32,1.44.48.4.2.6.44.6.68,0,.32-.08.64-.16,1-.16.4-.2.88-.2,1.48v6.6Z"/>
      <path class="st0" d="M536.84,710.62c.32,0,.56-.08.8-.16.16-.04.36-.12.52-.2.16-.08.32-.12.48-.2.16-.04.32-.08.56-.08.32,0,.68.04,1.08.04.32.04.68.08,1,.16.28.08.52.2.76.32.16.16.28.36.28.6,0,.32-.16.64-.4.92-.32.32-.52.6-.68.88-1.2,2.24-2.64,4.36-4.32,6.28.56.52,1.04.96,1.52,1.32.44.4.76.68.92.76.2.16.44.24.72.28.24.08.52.12.84.16.24.08.52.16.8.24.24.12.44.28.64.48l.56.8c.16.32.36.64.52.96.16.32.28.64.4.92.08.32.16.56.16.76,0,.48-.24.76-.72.84-.16.04-.4-.04-.68-.2-.32-.12-.68-.4-1.12-.84l-5.72-5.24c-1.6,1.68-3.4,3.2-5.32,4.56-2,1.36-4.12,2.6-6.4,3.72-.24.12-.44.16-.6.12-.24,0-.4-.04-.48-.2-.12-.12-.16-.28-.08-.48.04-.16.2-.36.44-.52,3.28-2.16,6.16-4.48,8.6-6.96,2.4-2.48,4.32-5.28,5.76-8.4-1.28.04-2.52.08-3.68.12-1.2.08-2.2.12-3,.2-.4.08-.68.16-.92.28-.28.16-.52.28-.76.36-.24.16-.48.24-.72.28-.28.08-.6.04-.96-.12-.36-.08-.72-.24-1.04-.4-.4-.16-.72-.32-1-.48-.32-.16-.56-.28-.76-.44-.24-.12-.44-.24-.52-.32s-.16-.16-.2-.24c-.08-.08-.12-.16-.12-.32,0-.24.08-.4.32-.48.16-.08.44-.08.76-.04.64.12,1.28.2,1.96.2.64.04,1.24.04,1.84.04.92,0,2.12,0,3.64-.08,1.44,0,2.88-.08,4.32-.2ZM534.88,735.89c0-1.12.2-2.12.68-3,.4-.88,1-1.6,1.8-2.24.76-.6,1.68-1.08,2.76-1.4,1.04-.32,2.2-.48,3.48-.48s2.44.16,3.52.48c1.04.32,1.96.8,2.76,1.4.76.64,1.36,1.36,1.8,2.24.4.88.64,1.88.64,3s-.24,2.12-.64,3.04c-.44.88-1.04,1.6-1.8,2.24-.8.6-1.72,1.08-2.76,1.44-1.08.32-2.24.48-3.52.48s-2.44-.16-3.48-.48c-1.08-.36-2-.84-2.76-1.44-.8-.64-1.4-1.36-1.8-2.24-.48-.92-.68-1.92-.68-3.04ZM537.8,735.85c0,1.56.52,2.8,1.6,3.68,1.04.88,2.44,1.32,4.2,1.32s3.16-.44,4.24-1.32c1.04-.88,1.56-2.12,1.56-3.68s-.52-2.76-1.56-3.64c-1.08-.84-2.48-1.28-4.24-1.28s-3.16.44-4.2,1.28c-1.08.88-1.6,2.08-1.6,3.64ZM547.12,718.42c-.32.08-.52.16-.68.24l-.48.28c-.16.08-.32.16-.48.16-.2.04-.44,0-.76-.08-.4-.08-.92-.28-1.48-.56-.6-.24-1.04-.48-1.32-.72-.4-.24-.56-.52-.56-.76,0-.32.2-.48.64-.48h1.12c.32.04.72.04,1.16.04h2.4c.92,0,1.84,0,2.76-.08v-6.4c0-.56-.28-1.04-.76-1.44-.56-.36-1.32-.72-2.28-1.04-.24-.08-.44-.16-.56-.32-.16-.08-.24-.24-.24-.48,0-.2.08-.36.32-.52.2-.12.52-.2,1-.2.24,0,.72.04,1.48.08.72.08,1.44.2,2.16.36.56.16,1.04.32,1.44.48.4.2.6.44.6.68,0,.32-.08.64-.16,1-.16.4-.2.88-.2,1.48v11.04c0,.56-.04,1.24-.04,2.04-.04.84-.12,1.64-.2,2.36-.12.76-.28,1.4-.52,1.92-.24.56-.6.8-1,.8-.16,0-.32-.04-.44-.2-.16-.12-.24-.36-.32-.68-.08-.32-.16-.72-.2-1.28-.08-.52-.08-1.2-.08-2.04v-5.88c-.4.04-.76.08-1.08.08-.4.04-.8.08-1.24.12Z"/>
      <path class="st0" d="M562.96,714.9c-.04-.28-.08-.56-.08-.8-.08-.2-.16-.4-.28-.64-.16-.16-.36-.36-.6-.56-.32-.16-.68-.32-1.16-.48-.24-.08-.44-.16-.56-.32-.16-.08-.24-.24-.24-.48,0-.2.08-.36.32-.52.2-.12.52-.2,1-.2.24,0,.64.04,1.28.08.56.08,1.24.2,1.96.36.12.08.24.08.36.08.08.04.16.08.28.12l8.44-.4c.4,0,.76-.08,1.04-.16.24-.08.44-.16.64-.28.16-.08.36-.16.56-.24.16-.04.36-.08.64-.08.32,0,.64.04,1.04.04.32.04.68.08,1,.16.28.08.52.2.76.32.2.16.32.36.32.6,0,.2-.04.36-.08.52l-.2.56c-.08.2-.12.44-.2.68-.08.32-.16.64-.16,1.04l-.84,9.56c.88.16,1.32.56,1.32,1.12,0,.4-.16.68-.48.8-.36.16-.76.2-1.2.2h-11.64c-.16.64-.32,1.04-.56,1.24-.28.24-.52.32-.72.32-.4,0-.72-.24-.88-.72-.2-.44-.32-1.24-.36-2.36l-.72-9.56ZM566.4,724.17l9.44-.2v-11l-9.6.2.16,10.4v.6ZM585.67,739.89c.32,0,.64-.08.88-.16.24-.16.44-.28.68-.36.16-.16.36-.28.56-.36.16-.12.4-.16.64-.16.4,0,.84,0,1.32.08.4,0,.84.08,1.32.24.4.08.68.28.88.52.16.2.24.44.24.76,0,.72-.52,1.12-1.52,1.12l-15.24.16c-2.08.04-3.12-1.04-3.12-3.24v-4.32c0-.56-.24-1.04-.72-1.44-.52-.36-1.28-.72-2.24-1.04-.24-.08-.44-.16-.56-.32-.16-.08-.24-.24-.24-.48,0-.2.08-.36.32-.52.2-.12.52-.2,1-.2.24,0,.72.04,1.48.08.72.08,1.44.2,2.16.36.56.16.96.32,1.28.52.24.24.4.52.4.76v7c0,.76.36,1.16,1.08,1.16l9.4-.16ZM589.83,726.93c0,.56-.04,1.24-.04,2.04-.04.84-.12,1.64-.2,2.36-.12.76-.28,1.4-.52,1.92-.24.56-.6.8-1,.8-.16,0-.32-.04-.44-.2-.16-.12-.24-.36-.32-.68-.08-.32-.16-.72-.2-1.28-.08-.52-.08-1.2-.08-2.04v-19.8c0-.56-.28-1.04-.76-1.44-.56-.36-1.32-.72-2.28-1.04-.24-.08-.44-.16-.56-.32-.16-.08-.24-.24-.24-.48,0-.2.08-.36.32-.52.2-.12.52-.2,1-.2.24,0,.72.04,1.48.08.72.08,1.44.2,2.16.36.56.16,1.04.32,1.44.48.4.2.6.44.6.68,0,.32-.08.64-.16,1-.16.4-.2.88-.2,1.48v16.8Z"/>
      <path class="st0" d="M617.16,713.98c0-1.04.2-1.96.68-2.84.44-.8,1.08-1.52,1.92-2.16.8-.56,1.76-1.04,2.88-1.36,1.08-.32,2.28-.48,3.64-.48,1.28,0,2.52.16,3.64.48,1.12.32,2.08.8,2.92,1.36.8.64,1.48,1.36,1.96,2.16.44.88.68,1.8.68,2.84,0,.96-.2,1.8-.56,2.56-.4.8-.96,1.52-1.6,2.08-.72.6-1.52,1.08-2.48,1.44-.96.4-2,.64-3.12.72v2.92c1.52,0,2.88-.04,4.16-.08,1.24,0,2.16-.04,2.8-.12.72-.04,1.32-.12,1.76-.24.4-.08.72-.2.96-.32.24-.08.44-.2.64-.28.16-.08.36-.12.68-.12.24,0,.52.04.88.04.32.04.68.08,1.08.08.32.08.68.12,1.08.16.32.08.64.12.92.2.48.16.8.32,1,.48.16.2.28.44.28.72,0,.4-.16.68-.44.92-.32.24-.8.36-1.4.32-1.04,0-2.28-.04-3.72-.08h-4.6c-1.64.04-3.28.04-4.96.04-1.72.04-3.32.08-4.8.08-1.52.08-2.92.12-4.12.16-1.24.08-2.2.16-2.88.24-.48.08-.88.16-1.2.28-.36.16-.68.28-1,.36-.36.16-.72.24-1.04.24-.36.08-.76,0-1.16-.16-.88-.28-1.6-.6-2.2-1-.64-.36-1.04-.64-1.28-.88-.12-.08-.2-.16-.28-.28-.08-.08-.12-.2-.12-.36,0-.28.12-.48.36-.6.24-.08.52-.08.92-.04.76.16,1.6.24,2.56.28.92.08,1.72.08,2.44.08h3.68c.88,0,1.84,0,2.92-.04,1.04,0,2.08,0,3.2-.04v-2.96c-1.12-.08-2.16-.32-3.08-.72-.96-.36-1.8-.84-2.44-1.44-.72-.56-1.24-1.28-1.6-2.08-.4-.76-.56-1.6-.56-2.56ZM632.79,741.01c.32,0,.64-.08.88-.16.24-.16.44-.28.68-.36.16-.16.36-.28.56-.36.16-.12.4-.16.64-.16.4,0,.84,0,1.32.08.4,0,.84.08,1.32.24.4.08.68.28.88.52.16.2.24.44.24.76,0,.72-.52,1.12-1.52,1.12l-16.96.16c-2.08.04-3.12-1.04-3.12-3.24v-1.72c0-.4-.16-.72-.48-1.04-.36-.32-1.04-.64-2-.96-.24-.08-.44-.16-.56-.32-.16-.08-.24-.24-.24-.48,0-.2.08-.36.32-.52.2-.12.52-.2,1-.2.24,0,.64.04,1.24.08.56.08,1.2.16,1.92.32.2.08.4.12.64.16.16.08.32.2.48.28l13.48-.28v-4.28h-2.28c-1.04.04-2.16.08-3.32.08-1.2.04-2.32.08-3.36.12-1.08.08-1.88.12-2.36.16-.4.08-.68.16-.92.24-.28.16-.52.28-.76.36-.24.16-.52.24-.76.28-.28.08-.6.04-.96-.12-.36-.08-.72-.24-1.04-.4-.4-.16-.72-.32-1-.48-.32-.16-.6-.32-.8-.48-.24-.12-.44-.24-.52-.32s-.16-.16-.2-.24c-.08-.08-.12-.16-.12-.32,0-.24.08-.4.32-.48.16-.08.44-.08.76-.04.64.12,1.28.2,1.96.2.64.04,1.24.04,1.84.04.48,0,1.24,0,2.28-.04.96,0,2.04,0,3.16-.04,1.12,0,2.2,0,3.28-.04,1.04,0,1.92-.04,2.6-.12.4,0,.76-.08,1-.16.24-.04.44-.12.64-.2.16-.08.32-.12.48-.2.16-.04.36-.08.64-.08.32,0,.64.04,1,.04.32.08.64.12.96.2.28.08.52.2.72.32.16.16.28.36.28.56,0,.16-.04.32-.04.44-.08.16-.12.28-.16.44-.08.16-.16.36-.24.6-.08.24-.16.56-.24.92l-.6,3c.72.08,1.08.36,1.08.92,0,.4-.16.64-.4.72-.32.12-.68.16-1.12.16l-14.72.16v3.16c0,.76.36,1.16,1.08,1.16l11.12-.16ZM620.2,713.98c0,1.56.56,2.76,1.76,3.56,1.12.84,2.6,1.24,4.4,1.24s3.24-.4,4.44-1.24c1.16-.8,1.76-2,1.76-3.56s-.6-2.72-1.76-3.56c-1.2-.8-2.68-1.24-4.44-1.24s-3.28.44-4.4,1.24c-1.2.84-1.76,2.04-1.76,3.56Z"/>
      <path class="st0" d="M650.52,721.25c0-.56-.24-1.04-.68-1.44-.48-.32-1.2-.68-2.16-1-.24-.08-.44-.16-.56-.32-.16-.08-.24-.24-.24-.48,0-.2.08-.36.32-.52.2-.12.52-.2,1-.2h.52c.24.04.52.08.84.08.32.04.64.08,1.04.08.32.08.68.12,1.04.2l10.56-.2v-5.88h-1.64c-.64.04-1.28.08-1.92.08-.68.08-1.32.12-1.96.16-.68.08-1.28.12-1.76.16-.4.08-.72.16-.96.28-.28.16-.52.28-.76.4-.28.16-.56.24-.8.28-.28.08-.6.08-.96-.04-.36-.08-.72-.24-1.04-.4-.4-.12-.72-.28-1-.44-.32-.16-.6-.32-.8-.48-.24-.16-.44-.28-.52-.36-.08-.08-.16-.16-.24-.32-.12-.12-.16-.28-.16-.44,0-.24.08-.4.32-.48.16-.08.44-.08.76-.04.64.12,1.28.2,1.96.2.64.04,1.24.04,1.84.04,1.04,0,2.24,0,3.64-.08,1.36,0,2.76-.08,4.12-.16.4,0,.76-.08,1-.16.24-.04.44-.12.64-.2.16-.08.32-.12.48-.2.16-.04.36-.08.64-.08.32,0,.64.04,1,.04.32.08.64.12.96.2.28.08.52.2.72.32.16.16.28.36.28.56,0,.16-.04.32-.08.44-.08.16-.12.28-.16.44-.08.16-.16.36-.24.6-.08.24-.16.56-.2.92l-.68,4.56c.76.04,1.16.36,1.16.96,0,.4-.16.64-.4.76-.32.16-.68.24-1.12.24l-10.72.16v4.92c0,.72.28,1.04.92,1.04,1.64,0,3.28-.08,4.96-.32,1.64-.16,3.28-.44,4.88-.8,1.6-.32,3.16-.72,4.72-1.16,1.52-.4,2.96-.84,4.36-1.32v-11.8c0-.56-.28-1.04-.76-1.44-.56-.36-1.32-.72-2.28-1.04-.24-.08-.44-.16-.56-.32-.16-.08-.24-.24-.24-.48,0-.2.08-.36.32-.52.2-.12.52-.2,1-.2.24,0,.72.04,1.48.08.72.08,1.44.2,2.16.36.56.16,1.04.32,1.44.48.4.2.6.44.6.68,0,.32-.08.64-.16,1-.16.4-.2.88-.2,1.48v11.04c0,.56-.04,1.24-.04,2.04-.04.84-.12,1.64-.2,2.36-.12.76-.28,1.4-.52,1.92-.24.56-.6.8-1,.8-.16,0-.32-.04-.44-.2-.16-.12-.24-.36-.32-.68-.08-.32-.16-.72-.2-1.28-.08-.52-.08-1.2-.08-2.04v-.76c-1.44.56-3.04,1.12-4.8,1.68-1.76.56-3.56,1.08-5.32,1.48-1.8.48-3.52.84-5.12,1.08-1.64.32-3.04.44-4.2.44-1.28,0-2.2-.32-2.68-1-.56-.64-.8-1.6-.8-2.88v-2.88ZM658.16,733.73c-.04-.28-.08-.56-.08-.8-.08-.2-.16-.4-.28-.64-.16-.16-.4-.36-.68-.56-.32-.16-.68-.32-1.16-.48-.24-.08-.44-.16-.56-.32-.16-.08-.24-.24-.24-.48,0-.2.08-.36.32-.52.2-.12.52-.2,1-.2.24,0,.64.04,1.24.08.56.08,1.2.2,1.92.36.12.08.24.08.36.08.08.04.16.08.28.12l10.4-.4c.4,0,.76-.08,1.04-.16.24-.08.44-.16.64-.28.16-.08.36-.16.56-.24.16-.04.36-.08.64-.08.32,0,.64.04,1.04.04.32.04.68.08,1,.16.28.08.52.2.76.32.16.16.28.36.28.6,0,.2-.04.36-.08.52l-.2.56c-.08.2-.12.44-.16.68-.08.32-.16.64-.2,1.04l-.84,6.36c.88.16,1.32.52,1.32,1.12,0,.4-.16.64-.48.8-.36.12-.76.2-1.2.2h-13.56c-.16.6-.32,1-.56,1.24-.28.2-.52.32-.72.32-.4,0-.68-.24-.84-.68-.16-.48-.32-1.28-.4-2.4l-.56-6.36ZM661.28,732.05l.16,7.16v.56l11.6-.16v-7.8l-11.76.24Z"/>
    </g>
  </g>
</svg>